<?xml version="1.0" encoding="UTF-8"?>
<svg xmlns="http://www.w3.org/2000/svg" xmlns:xlink="http://www.w3.org/1999/xlink" width="100px" height="px" viewBox="0 0 100 48" version="1.1">
<defs>
<linearGradient id="linear0" gradientUnits="userSpaceOnUse" x1="162.67442" y1="14.452718" x2="162.67442" y2="175.03487" >
<stop offset="0" style="stop-color:rgb(43.921569%,69.019608%,87.45098%);stop-opacity:1;"/>
<stop offset="0.5" style="stop-color:rgb(10.588235%,50.588235%,77.254902%);stop-opacity:1;"/>
<stop offset="1" style="stop-color:rgb(29.019608%,59.607843%,80.784314%);stop-opacity:1;"/>
</linearGradient>
</defs>
<g id="surface1">
<path style=" stroke:none;fill-rule:evenodd;fill:rgb(54.901961%,58.823529%,63.137255%);fill-opacity:1;" d="M 12.265625 23.351562 L 3.066406 43.964844 L 9.085938 43.964844 L 10.871094 39.597656 L 20.121094 39.597656 L 21.910156 43.964844 L 27.925781 43.964844 L 18.703125 23.351562 Z M 15.535156 28.210938 L 17.097656 32.132812 L 18.65625 36.050781 L 12.429688 36.066406 L 13.984375 32.140625 Z M 56.890625 23.351562 L 47.691406 43.964844 L 53.707031 43.964844 L 55.496094 39.597656 L 64.742188 39.597656 L 66.53125 43.964844 L 72.550781 43.964844 L 63.328125 23.351562 Z M 60.160156 28.210938 L 61.71875 32.132812 L 63.28125 36.050781 L 57.054688 36.066406 L 58.605469 32.140625 Z M 74.125 23.28125 L 80.957031 23.28125 L 85.328125 29.855469 L 89.960938 23.28125 L 96.695312 23.28125 L 88.578125 33.273438 L 97.222656 44.035156 L 90.386719 44.035156 L 85.425781 37.019531 L 80.5625 44.035156 L 73.269531 44.035156 L 82.074219 33.371094 Z M 74.125 23.28125 "/>
<path style=" stroke:none;fill-rule:nonzero;fill:rgb(54.901961%,58.823529%,63.137255%);fill-opacity:1;" d="M 45.210938 14.558594 L 37.03125 22.605469 L 39.847656 25.15625 L 42.511719 22.476562 L 42.808594 22.476562 L 42.808594 37.84375 C 42.808594 39.796875 41.238281 41.367188 39.289062 41.367188 L 36.488281 41.367188 C 34.539062 41.367188 32.96875 39.796875 32.96875 37.84375 L 32.96875 36.207031 L 27.527344 36.207031 L 27.527344 38.25 C 27.527344 41.777344 30.367188 44.613281 33.894531 44.613281 L 41.121094 44.613281 C 44.648438 44.613281 47.488281 41.777344 47.488281 38.25 L 47.488281 22.488281 L 47.699219 22.488281 L 50.8125 25.15625 L 53.257812 22.605469 Z M 45.210938 14.558594 "/>
<path style=" stroke:none;fill-rule:nonzero;fill:rgb(54.901961%,58.823529%,63.137255%);fill-opacity:1;" d="M 30.207031 34.511719 L 38.390625 26.464844 L 35.574219 23.914062 L 32.910156 26.59375 L 32.613281 26.59375 L 32.613281 11.226562 C 32.613281 9.273438 34.183594 7.703125 36.132812 7.703125 L 38.929688 7.703125 C 40.878906 7.703125 42.453125 9.273438 42.453125 11.226562 L 42.453125 12.867188 L 47.890625 12.867188 L 47.890625 10.824219 C 47.890625 7.296875 45.050781 4.457031 41.523438 4.457031 L 34.296875 4.457031 C 30.769531 4.457031 27.933594 7.296875 27.933594 10.824219 L 27.933594 26.582031 L 27.722656 26.582031 L 24.609375 23.914062 L 22.160156 26.464844 Z M 30.207031 34.511719 "/>
<path style="fill-rule:evenodd;fill:url(#linear0);stroke-width:0.5;stroke-linecap:butt;stroke-linejoin:miter;stroke:rgb(4.705882%,29.803922%,45.882353%);stroke-opacity:1;stroke-miterlimit:4;" d="M 136.501563 15.730143 C 122.462734 15.730143 111.175703 27.030355 111.175703 41.066243 L 111.175703 103.784749 L 110.336172 103.784749 L 97.945313 93.168457 L 88.197422 103.302897 L 120.223984 135.338298 L 152.794688 103.302897 L 141.585391 93.168457 L 130.982422 103.83138 L 129.785313 103.815837 L 129.785313 42.667236 C 129.785313 34.91097 136.050703 28.646891 143.808594 28.646891 L 154.940156 28.646891 C 162.698047 28.646891 168.947891 34.91097 168.947891 42.667236 L 168.947891 49.195557 L 190.604688 49.195557 L 190.604688 41.066243 C 190.604688 27.030355 179.302109 15.730143 165.263281 15.730143 Z M 179.939531 55.925944 L 147.384375 87.961344 L 158.593672 98.095785 L 169.196641 87.432861 L 170.378203 87.432861 L 170.378203 148.597005 C 170.378203 156.353271 164.128359 162.601807 156.370469 162.601807 L 145.223359 162.601807 C 137.465469 162.601807 131.215625 156.353271 131.215625 148.597005 L 131.215625 142.068685 L 109.558828 142.068685 L 109.558828 150.197998 C 109.558828 164.233887 120.861406 175.534098 134.900234 175.534098 L 163.661953 175.534098 C 177.700781 175.534098 189.003359 164.233887 189.003359 150.197998 L 189.003359 87.479492 L 189.842891 87.479492 L 202.23375 98.095785 L 211.966094 87.961344 Z M 295.0175 90.634847 L 326.655391 130.784017 L 291.612734 173.218099 L 320.63875 173.218099 L 339.994609 145.301758 L 359.739141 173.218099 L 386.946172 173.218099 L 352.556484 130.395426 L 384.847344 90.634847 L 358.044531 90.634847 L 339.605938 116.794759 L 322.208984 90.634847 Z M 48.817188 90.930176 L 12.204297 172.938314 L 36.162031 172.938314 L 43.266953 155.560547 L 80.081953 155.560547 L 87.202422 172.938314 L 111.144609 172.938314 L 74.438438 90.930176 Z M 226.424688 90.930176 L 189.811797 172.938314 L 213.753984 172.938314 L 220.874453 155.560547 L 257.673906 155.560547 L 264.794375 172.938314 L 288.752109 172.938314 L 252.045938 90.930176 Z M 61.829922 110.266439 L 68.048672 125.856689 L 74.251875 141.462484 L 61.861016 141.478027 L 49.470156 141.509115 L 55.657813 125.887777 Z M 239.437422 110.266439 L 245.640625 125.856689 L 251.859375 141.462484 L 239.468516 141.478027 L 227.077656 141.509115 L 233.249766 125.887777 Z M 239.437422 110.266439 " transform="matrix(0.251256,0,0,0.251309,0,0)"/>
</g>
</svg>
