<?xml version="1.0" encoding="UTF-8"?>
<svg xmlns="http://www.w3.org/2000/svg" xmlns:xlink="http://www.w3.org/1999/xlink" width="50px" height="px" viewBox="0 0 50 24" version="1.1">
<defs>
<linearGradient id="linear0" gradientUnits="userSpaceOnUse" x1="162.67442" y1="14.452718" x2="162.67442" y2="175.03487" >
<stop offset="0" style="stop-color:rgb(43.921569%,69.019608%,87.45098%);stop-opacity:1;"/>
<stop offset="0.5" style="stop-color:rgb(10.588235%,50.588235%,77.254902%);stop-opacity:1;"/>
<stop offset="1" style="stop-color:rgb(29.019608%,59.607843%,80.784314%);stop-opacity:1;"/>
</linearGradient>
</defs>
<g id="surface1">
<path style=" stroke:none;fill-rule:evenodd;fill:rgb(54.901961%,58.823529%,63.137255%);fill-opacity:1;" d="M 6.132812 11.675781 L 1.535156 21.980469 L 4.542969 21.980469 L 5.4375 19.796875 L 10.058594 19.796875 L 10.953125 21.980469 L 13.960938 21.980469 L 9.351562 11.675781 Z M 7.765625 14.105469 L 9.328125 18.027344 L 7.773438 18.03125 L 6.214844 18.035156 L 6.992188 16.070312 Z M 28.445312 11.675781 L 23.84375 21.980469 L 26.855469 21.980469 L 27.75 19.796875 L 32.371094 19.796875 L 33.265625 21.980469 L 36.273438 21.980469 L 31.664062 11.675781 Z M 30.078125 14.105469 L 31.640625 18.027344 L 30.082031 18.03125 L 28.527344 18.035156 L 29.304688 16.070312 Z M 37.0625 11.640625 L 40.480469 11.640625 L 42.664062 14.925781 L 44.980469 11.640625 L 48.347656 11.640625 L 44.289062 16.636719 L 48.609375 22.019531 L 45.195312 22.019531 L 42.714844 18.507812 L 40.28125 22.019531 L 36.632812 22.019531 L 41.039062 16.683594 Z M 37.0625 11.640625 "/>
<path style=" stroke:none;fill-rule:nonzero;fill:rgb(54.901961%,58.823529%,63.137255%);fill-opacity:1;" d="M 22.605469 7.277344 L 18.515625 11.304688 L 19.921875 12.578125 L 21.253906 11.238281 L 21.402344 11.238281 L 21.402344 18.921875 C 21.402344 19.898438 20.617188 20.683594 19.644531 20.683594 L 18.246094 20.683594 C 17.269531 20.683594 16.484375 19.898438 16.484375 18.921875 L 16.484375 18.101562 L 13.765625 18.101562 L 13.765625 19.125 C 13.765625 20.886719 15.183594 22.308594 16.949219 22.308594 L 20.5625 22.308594 C 22.324219 22.308594 23.742188 20.886719 23.742188 19.125 L 23.742188 11.242188 L 23.847656 11.242188 L 25.40625 12.578125 L 26.628906 11.304688 Z M 22.605469 7.277344 "/>
<path style=" stroke:none;fill-rule:nonzero;fill:rgb(54.901961%,58.823529%,63.137255%);fill-opacity:1;" d="M 15.105469 17.257812 L 19.195312 13.230469 L 17.785156 11.957031 L 16.453125 13.296875 L 16.304688 13.296875 L 16.304688 5.613281 C 16.304688 4.636719 17.089844 3.851562 18.066406 3.851562 L 19.464844 3.851562 C 20.441406 3.851562 21.226562 4.636719 21.226562 5.613281 L 21.226562 6.433594 L 23.945312 6.433594 L 23.945312 5.410156 C 23.945312 3.648438 22.527344 2.226562 20.761719 2.226562 L 17.148438 2.226562 C 15.386719 2.226562 13.964844 3.648438 13.964844 5.410156 L 13.964844 13.292969 L 13.859375 13.292969 L 12.304688 11.957031 L 11.082031 13.230469 Z M 15.105469 17.257812 "/>
<path style="fill-rule:evenodd;fill:url(#linear0);stroke-width:0.5;stroke-linecap:butt;stroke-linejoin:miter;stroke:rgb(4.705882%,29.803922%,45.882353%);stroke-opacity:1;stroke-miterlimit:4;" d="M 136.501563 15.730143 C 122.478281 15.730143 111.160156 27.045898 111.160156 41.066243 L 111.160156 103.769206 L 110.320625 103.769206 L 97.945313 93.168457 L 88.212969 103.302897 L 120.239531 135.322754 L 152.794688 103.302897 L 141.569844 93.168457 L 130.966875 103.83138 L 129.785313 103.83138 L 129.785313 42.68278 C 129.785313 34.91097 136.035156 28.662435 143.808594 28.662435 L 154.940156 28.662435 C 162.713594 28.662435 168.963438 34.91097 168.963438 42.68278 L 168.963438 49.180013 L 190.604688 49.180013 L 190.604688 41.066243 C 190.604688 27.045898 179.317656 15.730143 165.263281 15.730143 Z M 179.939531 55.925944 L 147.384375 87.945801 L 158.578125 98.111328 L 169.181094 87.448405 L 170.362656 87.448405 L 170.362656 148.597005 C 170.362656 156.368815 164.112813 162.61735 156.370469 162.61735 L 145.238906 162.61735 C 137.465469 162.61735 131.215625 156.368815 131.215625 148.597005 L 131.215625 142.068685 L 109.574375 142.068685 L 109.574375 150.182454 C 109.574375 164.233887 120.861406 175.518555 134.915781 175.518555 L 163.6775 175.518555 C 177.700781 175.518555 188.987813 164.233887 188.987813 150.182454 L 188.987813 87.479492 L 189.827344 87.479492 L 202.23375 98.111328 L 211.966094 87.945801 Z M 295.0175 90.650391 L 326.670938 130.784017 L 291.597188 173.218099 L 320.63875 173.218099 L 339.979063 145.301758 L 359.754688 173.218099 L 386.930625 173.218099 L 352.540938 130.379883 L 384.847344 90.650391 L 358.044531 90.650391 L 339.605938 116.794759 L 322.224531 90.650391 Z M 48.817188 90.930176 L 12.219844 172.938314 L 36.162031 172.938314 L 43.2825 155.560547 L 80.066406 155.560547 L 87.186875 172.938314 L 111.129063 172.938314 L 74.438438 90.930176 Z M 226.424688 90.930176 L 189.79625 172.938314 L 213.769531 172.938314 L 220.89 155.560547 L 257.673906 155.560547 L 264.794375 172.938314 L 288.736563 172.938314 L 252.045938 90.930176 Z M 61.814375 110.266439 L 68.033125 125.872233 L 74.251875 141.44694 L 61.876563 141.478027 L 49.470156 141.509115 L 55.657813 125.90332 Z M 239.421875 110.266439 L 245.640625 125.872233 L 251.859375 141.44694 L 239.484063 141.478027 L 227.077656 141.509115 L 233.265313 125.90332 Z M 239.421875 110.266439 " transform="matrix(0.125628,0,0,0.125654,0,0)"/>
</g>
</svg>
