<?xml version="1.0" encoding="UTF-8"?>
<svg xmlns="http://www.w3.org/2000/svg" xmlns:xlink="http://www.w3.org/1999/xlink" width="50px" height="50px" viewBox="0 0 50 39" version="1.1">
<g id="surface1">
<path style=" stroke:none;fill-rule:evenodd;fill:rgb(47.45098%,32.156863%,70.196078%);fill-opacity:1;" d="M 10.386719 0.00390625 C 7.53125 0.00390625 5.421875 2.449219 5.515625 5.101562 C 5.605469 7.648438 5.488281 10.945312 4.640625 13.636719 C 3.789062 16.332031 2.351562 18.042969 0 18.261719 L 0 20.738281 C 2.351562 20.957031 3.789062 22.667969 4.640625 25.363281 C 5.488281 28.054688 5.605469 31.351562 5.515625 33.898438 C 5.421875 36.550781 7.53125 38.996094 10.386719 38.996094 L 39.617188 38.996094 C 42.472656 38.996094 44.582031 36.550781 44.488281 33.898438 C 44.398438 31.351562 44.515625 28.054688 45.363281 25.363281 C 46.214844 22.667969 47.648438 20.957031 50 20.738281 L 50 18.261719 C 47.648438 18.042969 46.214844 16.332031 45.363281 13.636719 C 44.515625 10.945312 44.398438 7.648438 44.488281 5.101562 C 44.582031 2.449219 42.472656 0.00390625 39.617188 0.00390625 Z M 33.898438 24.007812 C 33.898438 27.65625 31.117188 29.871094 26.5 29.871094 L 18.644531 29.871094 C 18.175781 29.871094 17.796875 29.5 17.796875 29.039062 L 17.796875 9.960938 C 17.796875 9.5 18.175781 9.128906 18.644531 9.128906 L 26.457031 9.128906 C 30.304688 9.128906 32.832031 11.171875 32.832031 14.304688 C 32.832031 16.503906 31.132812 18.472656 28.96875 18.816406 L 28.96875 18.933594 C 31.914062 19.25 33.898438 21.246094 33.898438 24.007812 Z M 25.644531 11.761719 L 21.164062 11.761719 L 21.164062 17.953125 L 24.9375 17.953125 C 27.855469 17.953125 29.464844 16.804688 29.464844 14.75 C 29.460938 12.824219 28.078125 11.761719 25.644531 11.761719 Z M 21.164062 20.414062 L 21.164062 27.238281 L 25.808594 27.238281 C 28.847656 27.238281 30.457031 26.046875 30.457031 23.804688 C 30.457031 21.5625 28.800781 20.414062 25.613281 20.414062 Z M 21.164062 20.414062 "/>
</g>
</svg>
