<?xml version="1.0" encoding="UTF-8"?>
<svg xmlns="http://www.w3.org/2000/svg" xmlns:xlink="http://www.w3.org/1999/xlink" width="100px" height="100px" viewBox="0 0 100 79" version="1.1">
<g id="surface1">
<path style=" stroke:none;fill-rule:evenodd;fill:rgb(47.45098%,32.156863%,70.196078%);fill-opacity:1;" d="M 20.769531 0.0078125 C 15.066406 0.0078125 10.84375 4.960938 11.03125 10.332031 C 11.214844 15.488281 10.976562 22.171875 9.28125 27.621094 C 7.578125 33.085938 4.699219 36.546875 0 36.992188 L 0 42.007812 C 4.699219 42.453125 7.578125 45.914062 9.28125 51.378906 C 10.976562 56.828125 11.210938 63.511719 11.03125 68.667969 C 10.84375 74.039062 15.0625 78.992188 20.769531 78.992188 L 79.238281 78.992188 C 84.941406 78.992188 89.164062 74.039062 88.976562 68.667969 C 88.792969 63.511719 89.03125 56.828125 90.726562 51.378906 C 92.429688 45.914062 95.300781 42.453125 100 42.007812 L 100 36.992188 C 95.300781 36.546875 92.429688 33.085938 90.726562 27.621094 C 89.03125 22.171875 88.792969 15.488281 88.976562 10.332031 C 89.164062 4.960938 84.941406 0.0078125 79.238281 0.0078125 Z M 67.796875 48.628906 C 67.796875 56.019531 62.234375 60.503906 53.003906 60.503906 L 37.289062 60.503906 C 36.351562 60.503906 35.59375 59.753906 35.59375 58.824219 L 35.59375 20.175781 C 35.59375 19.246094 36.351562 18.496094 37.289062 18.496094 L 52.914062 18.496094 C 60.609375 18.496094 65.664062 22.628906 65.664062 28.976562 C 65.664062 33.429688 62.265625 37.417969 57.933594 38.117188 L 57.933594 38.347656 C 63.828125 38.992188 67.796875 43.039062 67.796875 48.628906 Z M 51.289062 23.820312 L 42.328125 23.820312 L 42.328125 36.371094 L 49.875 36.371094 C 55.710938 36.371094 58.925781 34.039062 58.925781 29.878906 C 58.925781 25.976562 56.160156 23.820312 51.289062 23.820312 Z M 42.328125 41.347656 L 42.328125 55.175781 L 51.617188 55.175781 C 57.691406 55.175781 60.910156 52.761719 60.910156 48.21875 C 60.910156 43.675781 57.601562 41.347656 51.226562 41.347656 Z M 42.328125 41.347656 "/>
</g>
</svg>
