<?xml version="1.0" encoding="UTF-8"?>
<svg xmlns="http://www.w3.org/2000/svg" xmlns:xlink="http://www.w3.org/1999/xlink" width="50px" height="50px" viewBox="0 0 50 57" version="1.1">
<g id="surface1">
<path style=" stroke:none;fill-rule:nonzero;fill:rgb(10.588235%,45.098039%,72.941176%);fill-opacity:1;" d="M 4.1875 51.027344 L 0 0.09375 L 50 0.199219 L 45.574219 51.027344 L 25.1875 56.90625 Z M 4.1875 51.027344 "/>
<path style=" stroke:none;fill-rule:nonzero;fill:rgb(10.980392%,53.333333%,78.039216%);fill-opacity:1;" d="M 25.1875 51.984375 L 25.1875 4.945312 L 45.777344 5.015625 L 42.105469 47.101562 Z M 25.1875 51.984375 "/>
<path style=" stroke:none;fill-rule:nonzero;fill:rgb(100%,100%,100%);fill-opacity:1;" d="M 40.664062 10.957031 L 8.992188 10.957031 L 9.847656 17.105469 L 24.878906 17.105469 L 10.089844 23.425781 L 10.945312 29.371094 L 32.738281 29.371094 L 31.949219 37.671875 L 24.570312 39.105469 L 17.878906 37.398438 L 17.363281 32.683594 L 11.222656 32.683594 L 12.046875 42.488281 L 25.222656 46.144531 L 37.851562 42.148438 L 39.464844 22.984375 L 26.113281 22.984375 L 40.664062 16.972656 Z M 40.664062 10.957031 "/>
</g>
</svg>
