<?xml version="1.0" encoding="UTF-8"?>
<svg xmlns="http://www.w3.org/2000/svg" xmlns:xlink="http://www.w3.org/1999/xlink" width="50px" height="50px" viewBox="0 0 50 14" version="1.1">
<g id="surface1">
<path style=" stroke:none;fill-rule:nonzero;fill:rgb(13.333333%,13.333333%,13.333333%);fill-opacity:1;" d="M 0.324219 10.863281 L 0.324219 5.511719 L 7.273438 5.511719 L 7.273438 5.199219 L 0.324219 5.199219 L 0.324219 0.316406 L 7.710938 0.316406 L 7.710938 0.00390625 L 0 0.00390625 L 0 11.175781 L 7.777344 11.175781 L 7.777344 10.863281 Z M 14.042969 3.132812 L 11.160156 6.777344 L 8.347656 3.132812 L 7.921875 3.132812 L 10.964844 7.011719 L 7.632812 11.175781 L 8.019531 11.175781 L 11.160156 7.246094 L 14.316406 11.175781 L 14.726562 11.175781 L 11.375 7.011719 L 14.433594 3.132812 Z M 15.703125 13.929688 L 15.703125 8.921875 L 15.734375 8.921875 C 15.929688 9.652344 16.3125 10.238281 16.890625 10.683594 C 17.464844 11.125 18.195312 11.347656 19.085938 11.347656 C 19.660156 11.347656 20.171875 11.234375 20.613281 11.011719 C 21.058594 10.785156 21.429688 10.480469 21.730469 10.09375 C 22.027344 9.710938 22.253906 9.261719 22.414062 8.75 C 22.570312 8.238281 22.648438 7.703125 22.648438 7.140625 C 22.648438 6.535156 22.566406 5.976562 22.40625 5.464844 C 22.242188 4.953125 22.007812 4.511719 21.695312 4.136719 C 21.386719 3.757812 21.015625 3.46875 20.574219 3.257812 C 20.136719 3.050781 19.640625 2.945312 19.085938 2.945312 C 18.664062 2.945312 18.269531 3.003906 17.90625 3.125 C 17.542969 3.246094 17.21875 3.414062 16.9375 3.632812 C 16.652344 3.855469 16.40625 4.117188 16.207031 4.410156 C 16 4.707031 15.84375 5.03125 15.734375 5.386719 L 15.703125 5.386719 L 15.703125 3.132812 L 15.375 3.132812 L 15.375 13.929688 Z M 19.085938 11.050781 C 18.066406 11.050781 17.246094 10.714844 16.628906 10.039062 C 16.011719 9.367188 15.703125 8.402344 15.703125 7.136719 C 15.703125 6.617188 15.777344 6.121094 15.929688 5.652344 C 16.082031 5.183594 16.300781 4.769531 16.589844 4.417969 C 16.875 4.0625 17.230469 3.78125 17.652344 3.570312 C 18.078125 3.363281 18.554688 3.257812 19.085938 3.257812 C 19.628906 3.257812 20.101562 3.363281 20.507812 3.570312 C 20.914062 3.78125 21.253906 4.0625 21.519531 4.425781 C 21.785156 4.785156 21.984375 5.195312 22.121094 5.660156 C 22.253906 6.125 22.324219 6.617188 22.324219 7.136719 C 22.324219 7.609375 22.261719 8.074219 22.136719 8.539062 C 22.011719 9.003906 21.820312 9.421875 21.558594 9.789062 C 21.296875 10.160156 20.964844 10.464844 20.558594 10.699219 C 20.152344 10.933594 19.660156 11.050781 19.085938 11.050781 Z M 24.4375 11.175781 L 24.4375 6.621094 C 24.4375 6.183594 24.503906 5.757812 24.632812 5.339844 C 24.765625 4.921875 24.964844 4.554688 25.234375 4.238281 C 25.507812 3.917969 25.851562 3.667969 26.269531 3.484375 C 26.6875 3.304688 27.183594 3.226562 27.757812 3.257812 L 27.757812 2.945312 C 27.257812 2.933594 26.824219 2.988281 26.449219 3.101562 C 26.074219 3.21875 25.75 3.375 25.480469 3.570312 C 25.207031 3.769531 24.992188 4 24.828125 4.269531 C 24.667969 4.535156 24.546875 4.820312 24.472656 5.121094 L 24.4375 5.121094 L 24.4375 3.132812 L 24.113281 3.132812 L 24.113281 11.175781 Z M 28.164062 7.214844 L 35.160156 7.214844 C 35.183594 6.664062 35.125 6.132812 34.988281 5.621094 C 34.855469 5.109375 34.636719 4.65625 34.339844 4.261719 C 34.042969 3.863281 33.65625 3.546875 33.183594 3.304688 C 32.710938 3.066406 32.152344 2.945312 31.5 2.945312 C 31.035156 2.945312 30.578125 3.039062 30.132812 3.226562 C 29.6875 3.414062 29.296875 3.6875 28.960938 4.046875 C 28.625 4.410156 28.355469 4.847656 28.148438 5.371094 C 27.941406 5.890625 27.839844 6.488281 27.839844 7.152344 C 27.839844 7.75 27.910156 8.304688 28.050781 8.820312 C 28.191406 9.335938 28.410156 9.785156 28.703125 10.164062 C 28.996094 10.546875 29.371094 10.839844 29.832031 11.050781 C 30.292969 11.257812 30.847656 11.359375 31.5 11.347656 C 32.453125 11.347656 33.257812 11.089844 33.90625 10.574219 C 34.558594 10.054688 34.945312 9.328125 35.0625 8.390625 L 34.738281 8.390625 C 34.597656 9.277344 34.238281 9.941406 33.65625 10.386719 C 33.074219 10.828125 32.347656 11.050781 31.46875 11.050781 C 30.871094 11.050781 30.367188 10.949219 29.953125 10.753906 C 29.542969 10.554688 29.207031 10.28125 28.945312 9.9375 C 28.683594 9.59375 28.492188 9.191406 28.367188 8.726562 C 28.242188 8.261719 28.175781 7.757812 28.164062 7.214844 Z M 34.835938 6.902344 L 28.164062 6.902344 C 28.195312 6.339844 28.304688 5.835938 28.488281 5.386719 C 28.675781 4.9375 28.914062 4.554688 29.214844 4.238281 C 29.511719 3.917969 29.859375 3.675781 30.253906 3.507812 C 30.652344 3.34375 31.078125 3.257812 31.53125 3.257812 C 32.074219 3.257812 32.550781 3.355469 32.964844 3.546875 C 33.375 3.742188 33.722656 4.003906 33.996094 4.339844 C 34.273438 4.671875 34.484375 5.058594 34.625 5.503906 C 34.765625 5.945312 34.835938 6.414062 34.835938 6.902344 Z M 41.914062 5.511719 L 42.238281 5.511719 C 42.238281 4.613281 41.96875 3.960938 41.425781 3.554688 C 40.882812 3.148438 40.144531 2.945312 39.210938 2.945312 C 38.691406 2.945312 38.253906 3.007812 37.894531 3.132812 C 37.535156 3.257812 37.242188 3.421875 37.015625 3.617188 C 36.789062 3.816406 36.625 4.035156 36.527344 4.277344 C 36.429688 4.515625 36.382812 4.746094 36.382812 4.964844 C 36.382812 5.402344 36.460938 5.75 36.625 6.011719 C 36.789062 6.273438 37.042969 6.476562 37.390625 6.621094 C 37.628906 6.726562 37.898438 6.820312 38.203125 6.902344 C 38.507812 6.988281 38.859375 7.074219 39.261719 7.167969 C 39.621094 7.253906 39.972656 7.335938 40.320312 7.421875 C 40.664062 7.503906 40.972656 7.617188 41.238281 7.757812 C 41.503906 7.898438 41.722656 8.078125 41.890625 8.296875 C 42.058594 8.515625 42.140625 8.800781 42.140625 9.15625 C 42.140625 9.5 42.058594 9.792969 41.890625 10.03125 C 41.722656 10.269531 41.503906 10.472656 41.246094 10.621094 C 40.984375 10.769531 40.695312 10.878906 40.375 10.949219 C 40.054688 11.015625 39.742188 11.050781 39.441406 11.050781 C 38.453125 11.050781 37.695312 10.839844 37.171875 10.417969 C 36.644531 9.992188 36.382812 9.328125 36.382812 8.421875 L 36.054688 8.421875 C 36.054688 9.433594 36.339844 10.171875 36.910156 10.644531 C 37.480469 11.113281 38.324219 11.347656 39.441406 11.347656 C 39.796875 11.347656 40.160156 11.308594 40.523438 11.230469 C 40.886719 11.152344 41.210938 11.023438 41.5 10.847656 C 41.785156 10.671875 42.023438 10.4375 42.199219 10.15625 C 42.378906 9.875 42.464844 9.53125 42.464844 9.125 C 42.464844 8.738281 42.386719 8.425781 42.230469 8.1875 C 42.074219 7.945312 41.867188 7.75 41.613281 7.59375 C 41.359375 7.4375 41.070312 7.3125 40.75 7.222656 C 40.429688 7.136719 40.105469 7.050781 39.78125 6.964844 C 39.382812 6.867188 38.984375 6.765625 38.585938 6.667969 C 38.246094 6.585938 37.925781 6.488281 37.632812 6.371094 C 37.351562 6.257812 37.128906 6.09375 36.960938 5.878906 C 36.789062 5.664062 36.707031 5.359375 36.707031 4.964844 C 36.707031 4.890625 36.726562 4.761719 36.773438 4.574219 C 36.816406 4.386719 36.917969 4.195312 37.082031 4 C 37.242188 3.808594 37.492188 3.636719 37.828125 3.484375 C 38.164062 3.335938 38.625 3.257812 39.210938 3.257812 C 39.613281 3.257812 39.980469 3.300781 40.3125 3.382812 C 40.640625 3.46875 40.925781 3.601562 41.164062 3.78125 C 41.402344 3.964844 41.589844 4.195312 41.71875 4.480469 C 41.847656 4.761719 41.914062 5.105469 41.914062 5.511719 Z M 49.445312 5.511719 L 49.773438 5.511719 C 49.773438 4.613281 49.5 3.960938 48.957031 3.554688 C 48.417969 3.148438 47.679688 2.945312 46.746094 2.945312 C 46.226562 2.945312 45.785156 3.007812 45.429688 3.132812 C 45.070312 3.257812 44.777344 3.421875 44.550781 3.617188 C 44.320312 3.816406 44.160156 4.035156 44.0625 4.277344 C 43.964844 4.515625 43.914062 4.746094 43.914062 4.964844 C 43.914062 5.402344 43.996094 5.75 44.160156 6.011719 C 44.320312 6.273438 44.578125 6.476562 44.921875 6.621094 C 45.164062 6.726562 45.433594 6.820312 45.738281 6.902344 C 46.039062 6.988281 46.394531 7.074219 46.792969 7.167969 C 47.152344 7.253906 47.503906 7.335938 47.851562 7.421875 C 48.199219 7.503906 48.503906 7.617188 48.773438 7.757812 C 49.039062 7.898438 49.253906 8.078125 49.421875 8.296875 C 49.589844 8.515625 49.675781 8.800781 49.675781 9.15625 C 49.675781 9.5 49.589844 9.792969 49.421875 10.03125 C 49.253906 10.269531 49.035156 10.472656 48.78125 10.621094 C 48.519531 10.769531 48.230469 10.878906 47.910156 10.949219 C 47.589844 11.015625 47.277344 11.050781 46.972656 11.050781 C 45.988281 11.050781 45.230469 10.839844 44.703125 10.417969 C 44.175781 9.992188 43.914062 9.328125 43.914062 8.421875 L 43.589844 8.421875 C 43.589844 9.433594 43.875 10.171875 44.445312 10.644531 C 45.011719 11.113281 45.855469 11.347656 46.972656 11.347656 C 47.332031 11.347656 47.691406 11.308594 48.054688 11.230469 C 48.417969 11.152344 48.746094 11.023438 49.03125 10.847656 C 49.316406 10.671875 49.554688 10.4375 49.730469 10.15625 C 49.910156 9.875 50 9.53125 50 9.125 C 50 8.738281 49.921875 8.425781 49.765625 8.1875 C 49.605469 7.945312 49.402344 7.75 49.144531 7.59375 C 48.890625 7.4375 48.601562 7.3125 48.285156 7.222656 C 47.960938 7.136719 47.640625 7.050781 47.316406 6.964844 C 46.917969 6.867188 46.519531 6.765625 46.121094 6.667969 C 45.777344 6.585938 45.460938 6.488281 45.167969 6.371094 C 44.886719 6.257812 44.660156 6.09375 44.492188 5.878906 C 44.324219 5.664062 44.238281 5.359375 44.238281 4.964844 C 44.238281 4.890625 44.261719 4.761719 44.304688 4.574219 C 44.347656 4.386719 44.453125 4.195312 44.613281 4 C 44.777344 3.808594 45.027344 3.636719 45.363281 3.484375 C 45.699219 3.335938 46.160156 3.257812 46.746094 3.257812 C 47.148438 3.257812 47.511719 3.300781 47.84375 3.382812 C 48.175781 3.46875 48.460938 3.601562 48.699219 3.78125 C 48.9375 3.964844 49.121094 4.195312 49.25 4.480469 C 49.382812 4.761719 49.445312 5.105469 49.445312 5.511719 Z M 49.445312 5.511719 "/>
</g>
</svg>
