<?xml version="1.0" encoding="UTF-8"?>
<svg xmlns="http://www.w3.org/2000/svg" xmlns:xlink="http://www.w3.org/1999/xlink" width="100px" height="100px" viewBox="0 0 100 29" version="1.1">
<g id="surface1">
<path style=" stroke:none;fill-rule:nonzero;fill:rgb(13.333333%,13.333333%,13.333333%);fill-opacity:1;" d="M 0.652344 22.5 L 0.652344 11.417969 L 14.546875 11.417969 L 14.546875 10.769531 L 0.652344 10.769531 L 0.652344 0.65625 L 15.425781 0.65625 L 15.425781 0.0078125 L 0 0.0078125 L 0 23.148438 L 15.554688 23.148438 L 15.554688 22.5 Z M 28.082031 6.492188 L 22.324219 14.042969 L 16.695312 6.492188 L 15.847656 6.492188 L 21.933594 14.527344 L 15.261719 23.148438 L 16.042969 23.148438 L 22.324219 15.011719 L 28.636719 23.148438 L 29.449219 23.148438 L 22.746094 14.527344 L 28.863281 6.492188 Z M 31.402344 28.851562 L 31.402344 18.480469 L 31.46875 18.480469 C 31.859375 19.992188 32.628906 21.210938 33.777344 22.128906 C 34.929688 23.046875 36.390625 23.503906 38.171875 23.503906 C 39.320312 23.503906 40.339844 23.273438 41.230469 22.808594 C 42.121094 22.34375 42.863281 21.710938 43.460938 20.914062 C 44.054688 20.113281 44.511719 19.183594 44.824219 18.125 C 45.140625 17.066406 45.296875 15.953125 45.296875 14.789062 C 45.296875 13.535156 45.136719 12.378906 44.808594 11.320312 C 44.484375 10.261719 44.011719 9.34375 43.394531 8.566406 C 42.777344 7.789062 42.027344 7.183594 41.148438 6.75 C 40.269531 6.316406 39.277344 6.101562 38.171875 6.101562 C 37.324219 6.101562 36.539062 6.226562 35.8125 6.476562 C 35.085938 6.722656 34.441406 7.074219 33.875 7.527344 C 33.308594 7.984375 32.816406 8.527344 32.410156 9.132812 C 32 9.746094 31.683594 10.421875 31.46875 11.15625 L 31.402344 11.15625 L 31.402344 6.492188 L 30.75 6.492188 L 30.75 28.851562 Z M 38.171875 22.890625 C 36.132812 22.890625 34.492188 22.191406 33.257812 20.796875 C 32.019531 19.40625 31.402344 17.402344 31.402344 14.785156 C 31.402344 13.707031 31.554688 12.679688 31.859375 11.707031 C 32.160156 10.734375 32.601562 9.882812 33.175781 9.148438 C 33.75 8.414062 34.460938 7.832031 35.308594 7.398438 C 36.152344 6.964844 37.109375 6.75 38.171875 6.75 C 39.257812 6.75 40.203125 6.964844 41.019531 7.398438 C 41.832031 7.832031 42.503906 8.417969 43.035156 9.164062 C 43.566406 9.910156 43.96875 10.761719 44.242188 11.722656 C 44.511719 12.6875 44.648438 13.707031 44.648438 14.785156 C 44.648438 15.757812 44.523438 16.726562 44.273438 17.6875 C 44.023438 18.648438 43.636719 19.511719 43.117188 20.28125 C 42.597656 21.046875 41.929688 21.671875 41.117188 22.160156 C 40.300781 22.644531 39.320312 22.890625 38.171875 22.890625 Z M 48.878906 23.148438 L 48.878906 13.71875 C 48.878906 12.808594 49.007812 11.925781 49.269531 11.058594 C 49.527344 10.195312 49.929688 9.433594 50.472656 8.777344 C 51.015625 8.117188 51.703125 7.597656 52.539062 7.21875 C 53.375 6.839844 54.367188 6.683594 55.515625 6.75 L 55.515625 6.101562 C 54.519531 6.082031 53.644531 6.1875 52.894531 6.425781 C 52.148438 6.664062 51.503906 6.988281 50.960938 7.398438 C 50.417969 7.808594 49.984375 8.289062 49.660156 8.839844 C 49.332031 9.390625 49.09375 9.984375 48.941406 10.605469 L 48.878906 10.605469 L 48.878906 6.492188 L 48.226562 6.492188 L 48.226562 23.148438 Z M 56.328125 14.949219 L 70.320312 14.949219 C 70.367188 13.804688 70.25 12.703125 69.980469 11.644531 C 69.710938 10.585938 69.273438 9.644531 68.679688 8.824219 C 68.082031 8.003906 67.3125 7.34375 66.367188 6.847656 C 65.425781 6.351562 64.300781 6.101562 63 6.101562 C 62.066406 6.101562 61.15625 6.296875 60.265625 6.683594 C 59.378906 7.074219 58.597656 7.640625 57.925781 8.386719 C 57.25 9.132812 56.710938 10.042969 56.296875 11.125 C 55.886719 12.207031 55.679688 13.4375 55.679688 14.820312 C 55.679688 16.050781 55.820312 17.203125 56.101562 18.269531 C 56.382812 19.339844 56.816406 20.269531 57.402344 21.058594 C 57.988281 21.847656 58.742188 22.457031 59.664062 22.890625 C 60.585938 23.320312 61.699219 23.527344 63 23.503906 C 64.910156 23.503906 66.515625 22.96875 67.816406 21.902344 C 69.117188 20.832031 69.886719 19.324219 70.125 17.378906 L 69.476562 17.378906 C 69.195312 19.214844 68.472656 20.59375 67.3125 21.511719 C 66.152344 22.429688 64.691406 22.890625 62.933594 22.890625 C 61.742188 22.890625 60.734375 22.683594 59.910156 22.273438 C 59.085938 21.863281 58.410156 21.300781 57.890625 20.589844 C 57.371094 19.875 56.984375 19.039062 56.734375 18.078125 C 56.488281 17.113281 56.351562 16.074219 56.328125 14.949219 Z M 69.671875 14.300781 L 56.328125 14.300781 C 56.394531 13.132812 56.609375 12.085938 56.980469 11.15625 C 57.347656 10.226562 57.832031 9.433594 58.429688 8.777344 C 59.023438 8.117188 59.71875 7.613281 60.511719 7.269531 C 61.304688 6.921875 62.15625 6.75 63.066406 6.75 C 64.148438 6.75 65.105469 6.949219 65.929688 7.347656 C 66.753906 7.75 67.441406 8.292969 67.996094 8.984375 C 68.546875 9.675781 68.964844 10.480469 69.25 11.398438 C 69.53125 12.320312 69.671875 13.285156 69.671875 14.300781 Z M 83.828125 11.417969 L 84.476562 11.417969 C 84.476562 9.558594 83.933594 8.207031 82.851562 7.367188 C 81.765625 6.523438 80.289062 6.101562 78.425781 6.101562 C 77.382812 6.101562 76.503906 6.230469 75.789062 6.492188 C 75.074219 6.75 74.488281 7.085938 74.03125 7.496094 C 73.578125 7.90625 73.25 8.359375 73.054688 8.855469 C 72.859375 9.351562 72.761719 9.828125 72.761719 10.28125 C 72.761719 11.191406 72.925781 11.914062 73.25 12.453125 C 73.578125 12.992188 74.085938 13.414062 74.78125 13.71875 C 75.257812 13.933594 75.800781 14.128906 76.40625 14.300781 C 77.015625 14.472656 77.71875 14.65625 78.523438 14.851562 C 79.238281 15.023438 79.945312 15.199219 80.636719 15.371094 C 81.332031 15.542969 81.945312 15.773438 82.476562 16.066406 C 83.007812 16.359375 83.441406 16.730469 83.777344 17.183594 C 84.113281 17.640625 84.28125 18.234375 84.28125 18.96875 C 84.28125 19.679688 84.113281 20.285156 83.777344 20.78125 C 83.445312 21.277344 83.003906 21.691406 82.492188 21.996094 C 81.972656 22.3125 81.390625 22.539062 80.75 22.679688 C 80.113281 22.820312 79.488281 22.890625 78.878906 22.890625 C 76.90625 22.890625 75.394531 22.453125 74.339844 21.578125 C 73.289062 20.703125 72.761719 19.324219 72.761719 17.445312 L 72.113281 17.445312 C 72.113281 19.539062 72.679688 21.074219 73.820312 22.046875 C 74.960938 23.019531 76.644531 23.503906 78.878906 23.503906 C 79.597656 23.503906 80.316406 23.421875 81.042969 23.261719 C 81.769531 23.097656 82.421875 22.835938 82.996094 22.46875 C 83.566406 22.105469 84.046875 21.617188 84.394531 21.042969 C 84.753906 20.457031 84.933594 19.746094 84.933594 18.902344 C 84.933594 18.101562 84.777344 17.457031 84.460938 16.957031 C 84.148438 16.460938 83.734375 16.050781 83.226562 15.726562 C 82.714844 15.402344 82.140625 15.148438 81.5 14.964844 C 80.855469 14.78125 80.210938 14.601562 79.5625 14.429688 C 78.765625 14.222656 77.96875 14.015625 77.171875 13.816406 C 76.488281 13.640625 75.855469 13.4375 75.269531 13.199219 C 74.703125 12.960938 74.253906 12.621094 73.917969 12.179688 C 73.582031 11.734375 73.414062 11.101562 73.414062 10.28125 C 73.414062 10.132812 73.457031 9.859375 73.542969 9.472656 C 73.628906 9.082031 73.835938 8.6875 74.164062 8.289062 C 74.488281 7.890625 74.984375 7.53125 75.660156 7.21875 C 76.332031 6.90625 77.253906 6.75 78.425781 6.75 C 79.226562 6.75 79.960938 6.835938 80.621094 7.007812 C 81.28125 7.183594 81.851562 7.457031 82.328125 7.835938 C 82.808594 8.214844 83.175781 8.695312 83.4375 9.277344 C 83.695312 9.859375 83.828125 10.574219 83.828125 11.417969 Z M 98.894531 11.417969 L 99.542969 11.417969 C 99.542969 9.558594 99.003906 8.207031 97.917969 7.367188 C 96.832031 6.523438 95.359375 6.101562 93.492188 6.101562 C 92.449219 6.101562 91.570312 6.230469 90.855469 6.492188 C 90.140625 6.75 89.554688 7.085938 89.097656 7.496094 C 88.644531 7.90625 88.316406 8.359375 88.121094 8.855469 C 87.925781 9.351562 87.828125 9.828125 87.828125 10.28125 C 87.828125 11.191406 87.992188 11.914062 88.316406 12.453125 C 88.644531 12.992188 89.152344 13.414062 89.847656 13.71875 C 90.324219 13.933594 90.867188 14.128906 91.472656 14.300781 C 92.082031 14.472656 92.785156 14.65625 93.589844 14.851562 C 94.304688 15.023438 95.011719 15.199219 95.703125 15.371094 C 96.398438 15.542969 97.011719 15.773438 97.542969 16.066406 C 98.074219 16.359375 98.507812 16.730469 98.84375 17.183594 C 99.179688 17.640625 99.347656 18.234375 99.347656 18.96875 C 99.347656 19.679688 99.179688 20.285156 98.84375 20.78125 C 98.511719 21.277344 98.074219 21.691406 97.558594 21.996094 C 97.039062 22.3125 96.457031 22.539062 95.816406 22.679688 C 95.179688 22.820312 94.554688 22.890625 93.945312 22.890625 C 91.972656 22.890625 90.460938 22.453125 89.40625 21.578125 C 88.355469 20.703125 87.828125 19.324219 87.828125 17.445312 L 87.179688 17.445312 C 87.179688 19.539062 87.746094 21.074219 88.886719 22.046875 C 90.027344 23.019531 91.710938 23.503906 93.945312 23.503906 C 94.664062 23.503906 95.382812 23.421875 96.109375 23.261719 C 96.835938 23.097656 97.488281 22.835938 98.0625 22.46875 C 98.632812 22.105469 99.113281 21.617188 99.464844 21.042969 C 99.820312 20.457031 100 19.746094 100 18.902344 C 100 18.101562 99.84375 17.457031 99.527344 16.957031 C 99.214844 16.460938 98.800781 16.050781 98.292969 15.726562 C 97.78125 15.402344 97.207031 15.148438 96.566406 14.964844 C 95.921875 14.78125 95.277344 14.601562 94.628906 14.429688 C 93.835938 14.222656 93.035156 14.015625 92.238281 13.816406 C 91.554688 13.640625 90.921875 13.4375 90.335938 13.199219 C 89.769531 12.960938 89.320312 12.621094 88.984375 12.179688 C 88.648438 11.734375 88.480469 11.101562 88.480469 10.28125 C 88.480469 10.132812 88.523438 9.859375 88.609375 9.472656 C 88.695312 9.082031 88.902344 8.6875 89.230469 8.289062 C 89.554688 7.890625 90.054688 7.53125 90.726562 7.21875 C 91.398438 6.90625 92.320312 6.75 93.492188 6.75 C 94.292969 6.75 95.027344 6.835938 95.6875 7.007812 C 96.351562 7.183594 96.917969 7.457031 97.398438 7.835938 C 97.875 8.214844 98.242188 8.695312 98.503906 9.277344 C 98.761719 9.859375 98.894531 10.574219 98.894531 11.417969 Z M 98.894531 11.417969 "/>
</g>
</svg>
