<?xml version="1.0" encoding="UTF-8"?>
<svg xmlns="http://www.w3.org/2000/svg" xmlns:xlink="http://www.w3.org/1999/xlink" width="50px" height="50px" viewBox="0 0 50 50" version="1.1">
<g id="surface1">
<path style=" stroke:none;fill-rule:nonzero;fill:rgb(87.058824%,29.803922%,21.176471%);fill-opacity:1;" d="M 49.058594 22.773438 L 27.226562 0.941406 C 25.96875 -0.3125 23.929688 -0.3125 22.671875 0.941406 L 18.140625 5.476562 L 23.890625 11.226562 C 25.226562 10.773438 26.757812 11.078125 27.824219 12.144531 C 28.894531 13.214844 29.195312 14.761719 28.734375 16.101562 L 34.273438 21.644531 C 35.617188 21.183594 37.164062 21.480469 38.234375 22.554688 C 39.730469 24.050781 39.730469 26.472656 38.234375 27.972656 C 36.738281 29.46875 34.3125 29.46875 32.8125 27.972656 C 31.6875 26.84375 31.410156 25.191406 31.980469 23.804688 L 26.8125 18.636719 L 26.8125 32.238281 C 27.1875 32.421875 27.527344 32.667969 27.824219 32.960938 C 29.320312 34.457031 29.320312 36.882812 27.824219 38.378906 C 26.328125 39.878906 23.902344 39.878906 22.40625 38.378906 C 20.910156 36.882812 20.910156 34.457031 22.40625 32.960938 C 22.765625 32.601562 23.191406 32.320312 23.660156 32.125 L 23.660156 18.398438 C 23.191406 18.207031 22.765625 17.921875 22.40625 17.5625 C 21.273438 16.429688 21 14.765625 21.582031 13.371094 L 15.914062 7.703125 L 0.941406 22.671875 C -0.316406 23.929688 -0.316406 25.96875 0.941406 27.226562 L 22.773438 49.054688 C 24.03125 50.3125 26.070312 50.3125 27.328125 49.054688 L 49.058594 27.328125 C 50.3125 26.070312 50.3125 24.03125 49.058594 22.773438 "/>
</g>
</svg>
