<?xml version="1.0" encoding="UTF-8"?>
<svg xmlns="http://www.w3.org/2000/svg" xmlns:xlink="http://www.w3.org/1999/xlink" width="100px" height="100px" viewBox="0 0 100 100" version="1.1">
<g id="surface1">
<path style=" stroke:none;fill-rule:nonzero;fill:rgb(87.058824%,29.803922%,21.176471%);fill-opacity:1;" d="M 98.113281 45.542969 L 54.453125 1.886719 C 51.941406 -0.628906 47.863281 -0.628906 45.347656 1.886719 L 36.28125 10.953125 L 47.78125 22.453125 C 50.453125 21.550781 53.519531 22.15625 55.648438 24.285156 C 57.789062 26.429688 58.390625 29.523438 57.464844 32.203125 L 68.550781 43.289062 C 71.230469 42.363281 74.324219 42.960938 76.46875 45.105469 C 79.460938 48.097656 79.460938 52.949219 76.46875 55.941406 C 73.472656 58.9375 68.625 58.9375 65.628906 55.941406 C 63.375 53.6875 62.820312 50.382812 63.960938 47.609375 L 53.625 37.273438 L 53.621094 64.472656 C 54.371094 64.84375 55.054688 65.332031 55.648438 65.921875 C 58.640625 68.914062 58.640625 73.765625 55.648438 76.761719 C 52.65625 79.753906 47.804688 79.753906 44.8125 76.761719 C 41.820312 73.765625 41.820312 68.914062 44.8125 65.921875 C 45.53125 65.207031 46.382812 64.636719 47.320312 64.25 L 47.320312 36.796875 C 46.382812 36.410156 45.527344 35.84375 44.8125 35.125 C 42.546875 32.859375 42 29.53125 43.160156 26.746094 L 31.824219 15.40625 L 1.886719 45.34375 C -0.628906 47.859375 -0.628906 51.9375 1.886719 54.453125 L 45.546875 98.113281 C 48.0625 100.625 52.140625 100.625 54.65625 98.113281 L 98.113281 54.65625 C 100.628906 52.140625 100.628906 48.058594 98.113281 45.542969 "/>
</g>
</svg>
