<?xml version="1.0" encoding="UTF-8"?>
<svg xmlns="http://www.w3.org/2000/svg" xmlns:xlink="http://www.w3.org/1999/xlink" width="100px" height="100px" viewBox="0 0 100 97" version="1.1">
<g id="surface1">
<path style=" stroke:none;fill-rule:nonzero;fill:rgb(8.627451%,8.627451%,7.843137%);fill-opacity:1;" d="M 49.804688 0 C 22.304688 0 0 22.234375 0 49.664062 C 0 71.605469 14.269531 90.222656 34.0625 96.789062 C 36.550781 97.25 37.464844 95.710938 37.464844 94.398438 C 37.464844 93.214844 37.417969 89.304688 37.398438 85.152344 C 23.539062 88.15625 20.617188 79.292969 20.617188 79.292969 C 18.351562 73.554688 15.085938 72.027344 15.085938 72.027344 C 10.566406 68.945312 15.425781 69.007812 15.425781 69.007812 C 20.429688 69.359375 23.0625 74.125 23.0625 74.125 C 27.503906 81.71875 34.714844 79.523438 37.554688 78.253906 C 38.003906 75.042969 39.292969 72.855469 40.71875 71.613281 C 29.65625 70.359375 18.023438 66.097656 18.023438 47.070312 C 18.023438 41.648438 19.972656 37.21875 23.15625 33.738281 C 22.640625 32.488281 20.933594 27.4375 23.640625 20.597656 C 23.640625 20.597656 27.820312 19.261719 37.339844 25.6875 C 41.3125 24.585938 45.574219 24.035156 49.804688 24.015625 C 54.039062 24.035156 58.304688 24.585938 62.285156 25.6875 C 71.789062 19.261719 75.96875 20.597656 75.96875 20.597656 C 78.679688 27.4375 76.972656 32.488281 76.457031 33.738281 C 79.648438 37.21875 81.582031 41.648438 81.582031 47.070312 C 81.582031 66.144531 69.929688 70.34375 58.839844 71.574219 C 60.625 73.113281 62.21875 76.136719 62.21875 80.769531 C 62.21875 87.414062 62.160156 92.765625 62.160156 94.398438 C 62.160156 95.722656 63.054688 97.269531 65.582031 96.78125 C 85.359375 90.207031 99.613281 71.597656 99.613281 49.664062 C 99.613281 22.234375 77.3125 0 49.804688 0 "/>
<path style=" stroke:none;fill-rule:nonzero;fill:rgb(8.627451%,8.627451%,7.843137%);fill-opacity:1;" d="M 18.65625 70.746094 C 18.546875 70.992188 18.15625 71.066406 17.800781 70.898438 C 17.4375 70.734375 17.234375 70.398438 17.351562 70.152344 C 17.460938 69.898438 17.851562 69.828125 18.210938 69.996094 C 18.574219 70.160156 18.78125 70.5 18.65625 70.746094 M 21.105469 72.925781 C 20.867188 73.144531 20.402344 73.042969 20.085938 72.695312 C 19.761719 72.351562 19.699219 71.886719 19.941406 71.664062 C 20.1875 71.445312 20.636719 71.546875 20.964844 71.894531 C 21.289062 72.246094 21.351562 72.703125 21.105469 72.925781 M 22.785156 75.714844 C 22.480469 75.925781 21.980469 75.726562 21.671875 75.285156 C 21.367188 74.84375 21.367188 74.316406 21.679688 74.101562 C 21.988281 73.890625 22.480469 74.082031 22.792969 74.519531 C 23.097656 74.96875 23.097656 75.5 22.785156 75.714844 M 25.628906 78.945312 C 25.355469 79.246094 24.773438 79.164062 24.347656 78.753906 C 23.914062 78.355469 23.789062 77.785156 24.0625 77.484375 C 24.339844 77.183594 24.925781 77.269531 25.355469 77.675781 C 25.785156 78.074219 25.917969 78.648438 25.628906 78.945312 M 29.300781 80.035156 C 29.179688 80.425781 28.621094 80.601562 28.054688 80.4375 C 27.492188 80.265625 27.125 79.808594 27.238281 79.417969 C 27.355469 79.027344 27.917969 78.839844 28.484375 79.019531 C 29.046875 79.1875 29.417969 79.640625 29.300781 80.035156 M 33.480469 80.5 C 33.496094 80.90625 33.015625 81.246094 32.425781 81.253906 C 31.828125 81.269531 31.347656 80.9375 31.34375 80.535156 C 31.34375 80.121094 31.808594 79.785156 32.40625 79.773438 C 32.996094 79.761719 33.480469 80.089844 33.480469 80.5 M 37.589844 80.339844 C 37.660156 80.742188 37.25 81.152344 36.660156 81.261719 C 36.082031 81.367188 35.546875 81.117188 35.472656 80.722656 C 35.402344 80.3125 35.820312 79.902344 36.398438 79.796875 C 36.988281 79.695312 37.515625 79.933594 37.589844 80.339844 "/>
</g>
</svg>
