<?xml version="1.0" encoding="UTF-8"?>
<svg xmlns="http://www.w3.org/2000/svg" xmlns:xlink="http://www.w3.org/1999/xlink" width="50px" height="50px" viewBox="0 0 50 48" version="1.1">
<g id="surface1">
<path style=" stroke:none;fill-rule:nonzero;fill:rgb(8.627451%,8.627451%,7.843137%);fill-opacity:1;" d="M 24.902344 0 C 11.152344 0 0 11.003906 0 24.574219 C 0 35.433594 7.136719 44.644531 17.03125 47.894531 C 18.273438 48.121094 18.730469 47.363281 18.730469 46.714844 C 18.730469 46.128906 18.707031 44.191406 18.699219 42.136719 C 11.769531 43.625 10.308594 39.238281 10.308594 39.238281 C 9.175781 36.398438 7.542969 35.640625 7.542969 35.640625 C 5.285156 34.117188 7.714844 34.148438 7.714844 34.148438 C 10.214844 34.320312 11.53125 36.679688 11.53125 36.679688 C 13.753906 40.4375 17.355469 39.351562 18.777344 38.722656 C 19 37.136719 19.648438 36.050781 20.359375 35.4375 C 14.828125 34.816406 9.011719 32.707031 9.011719 23.292969 C 9.011719 20.609375 9.984375 18.417969 11.578125 16.695312 C 11.320312 16.078125 10.46875 13.578125 11.820312 10.191406 C 11.820312 10.191406 13.910156 9.53125 18.671875 12.710938 C 20.65625 12.167969 22.785156 11.894531 24.902344 11.882812 C 27.019531 11.894531 29.152344 12.167969 31.140625 12.710938 C 35.894531 9.53125 37.984375 10.191406 37.984375 10.191406 C 39.339844 13.578125 38.484375 16.078125 38.226562 16.695312 C 39.824219 18.417969 40.789062 20.609375 40.789062 23.292969 C 40.789062 32.730469 34.964844 34.808594 29.417969 35.417969 C 30.3125 36.179688 31.109375 37.675781 31.109375 39.96875 C 31.109375 43.257812 31.078125 45.902344 31.078125 46.714844 C 31.078125 47.367188 31.527344 48.132812 32.789062 47.890625 C 42.679688 44.640625 49.804688 35.429688 49.804688 24.574219 C 49.804688 11.003906 38.65625 0 24.902344 0 "/>
<path style=" stroke:none;fill-rule:nonzero;fill:rgb(8.627451%,8.627451%,7.843137%);fill-opacity:1;" d="M 9.328125 35.007812 C 9.273438 35.128906 9.078125 35.167969 8.898438 35.082031 C 8.71875 35.003906 8.617188 34.835938 8.675781 34.714844 C 8.730469 34.589844 8.925781 34.554688 9.105469 34.636719 C 9.285156 34.71875 9.390625 34.886719 9.328125 35.007812 M 10.550781 36.085938 C 10.433594 36.195312 10.203125 36.144531 10.042969 35.972656 C 9.878906 35.800781 9.851562 35.574219 9.96875 35.464844 C 10.09375 35.355469 10.320312 35.40625 10.480469 35.578125 C 10.644531 35.75 10.675781 35.976562 10.550781 36.085938 M 11.390625 37.46875 C 11.238281 37.570312 10.992188 37.472656 10.835938 37.253906 C 10.683594 37.035156 10.683594 36.773438 10.839844 36.667969 C 10.996094 36.566406 11.238281 36.660156 11.394531 36.875 C 11.546875 37.097656 11.546875 37.359375 11.390625 37.46875 M 12.8125 39.066406 C 12.675781 39.214844 12.386719 39.175781 12.171875 38.972656 C 11.957031 38.773438 11.894531 38.492188 12.03125 38.34375 C 12.171875 38.195312 12.460938 38.238281 12.675781 38.4375 C 12.894531 38.636719 12.960938 38.917969 12.8125 39.066406 M 14.652344 39.605469 C 14.589844 39.796875 14.308594 39.886719 14.027344 39.804688 C 13.746094 39.71875 13.5625 39.492188 13.617188 39.300781 C 13.679688 39.105469 13.960938 39.015625 14.242188 39.101562 C 14.523438 39.1875 14.710938 39.410156 14.652344 39.605469 M 16.742188 39.835938 C 16.75 40.035156 16.507812 40.203125 16.210938 40.207031 C 15.914062 40.214844 15.675781 40.050781 15.671875 39.851562 C 15.671875 39.648438 15.90625 39.480469 16.203125 39.476562 C 16.5 39.46875 16.742188 39.632812 16.742188 39.835938 M 18.792969 39.757812 C 18.828125 39.953125 18.625 40.15625 18.332031 40.210938 C 18.042969 40.261719 17.773438 40.140625 17.738281 39.945312 C 17.699219 39.742188 17.910156 39.539062 18.199219 39.488281 C 18.492188 39.4375 18.757812 39.554688 18.792969 39.757812 "/>
</g>
</svg>
