<?xml version="1.0" encoding="UTF-8"?>
<svg xmlns="http://www.w3.org/2000/svg" xmlns:xlink="http://www.w3.org/1999/xlink" width="50px" height="50px" viewBox="0 0 50 50" version="1.1">
<g id="surface1">
<path style=" stroke:none;fill-rule:nonzero;fill:rgb(89.803922%,20.784314%,67.058824%);fill-opacity:1;" d="M 7.183594 37.832031 L 5.386719 36.796875 L 25.40625 2.121094 L 27.203125 3.160156 Z M 7.183594 37.832031 "/>
<path style=" stroke:none;fill-rule:nonzero;fill:rgb(89.803922%,20.784314%,67.058824%);fill-opacity:1;" d="M 4.976562 34.023438 L 45.011719 34.023438 L 45.011719 36.101562 L 4.976562 36.101562 Z M 4.976562 34.023438 "/>
<path style=" stroke:none;fill-rule:nonzero;fill:rgb(89.803922%,20.784314%,67.058824%);fill-opacity:1;" d="M 25.792969 46.753906 L 5.765625 35.191406 L 6.804688 33.394531 L 26.832031 44.957031 Z M 25.792969 46.753906 "/>
<path style=" stroke:none;fill-rule:nonzero;fill:rgb(89.803922%,20.784314%,67.058824%);fill-opacity:1;" d="M 43.191406 16.617188 L 23.164062 5.054688 L 24.203125 3.257812 L 44.226562 14.820312 Z M 43.191406 16.617188 "/>
<path style=" stroke:none;fill-rule:nonzero;fill:rgb(89.803922%,20.784314%,67.058824%);fill-opacity:1;" d="M 6.808594 16.609375 L 5.773438 14.8125 L 25.800781 3.25 L 26.835938 5.046875 Z M 6.808594 16.609375 "/>
<path style=" stroke:none;fill-rule:nonzero;fill:rgb(89.803922%,20.784314%,67.058824%);fill-opacity:1;" d="M 42.820312 37.832031 L 22.800781 3.160156 L 24.597656 2.121094 L 44.617188 36.796875 Z M 42.820312 37.832031 "/>
<path style=" stroke:none;fill-rule:nonzero;fill:rgb(89.803922%,20.784314%,67.058824%);fill-opacity:1;" d="M 6.5625 13.4375 L 8.636719 13.4375 L 8.636719 36.5625 L 6.5625 36.5625 Z M 6.5625 13.4375 "/>
<path style=" stroke:none;fill-rule:nonzero;fill:rgb(89.803922%,20.784314%,67.058824%);fill-opacity:1;" d="M 41.363281 13.4375 L 43.4375 13.4375 L 43.4375 36.5625 L 41.363281 36.5625 Z M 41.363281 13.4375 "/>
<path style=" stroke:none;fill-rule:nonzero;fill:rgb(89.803922%,20.784314%,67.058824%);fill-opacity:1;" d="M 25.441406 45.875 L 24.535156 44.304688 L 41.953125 34.25 L 42.859375 35.820312 Z M 25.441406 45.875 "/>
<path style=" stroke:none;fill-rule:nonzero;fill:rgb(89.803922%,20.784314%,67.058824%);fill-opacity:1;" d="M 46.1875 37.238281 C 44.988281 39.324219 42.3125 40.039062 40.226562 38.835938 C 38.136719 37.636719 37.425781 34.960938 38.625 32.875 C 39.824219 30.789062 42.5 30.074219 44.585938 31.273438 C 46.6875 32.488281 47.398438 35.148438 46.1875 37.238281 "/>
<path style=" stroke:none;fill-rule:nonzero;fill:rgb(89.803922%,20.784314%,67.058824%);fill-opacity:1;" d="M 11.363281 17.125 C 10.164062 19.210938 7.488281 19.925781 5.398438 18.726562 C 3.3125 17.523438 2.601562 14.851562 3.800781 12.761719 C 5 10.675781 7.675781 9.960938 9.761719 11.164062 C 11.851562 12.375 12.5625 15.039062 11.363281 17.125 "/>
<path style=" stroke:none;fill-rule:nonzero;fill:rgb(89.803922%,20.784314%,67.058824%);fill-opacity:1;" d="M 3.8125 37.238281 C 2.613281 35.148438 3.324219 32.488281 5.414062 31.273438 C 7.5 30.074219 10.164062 30.789062 11.375 32.875 C 12.574219 34.960938 11.863281 37.625 9.773438 38.835938 C 7.675781 40.039062 5.011719 39.324219 3.8125 37.238281 "/>
<path style=" stroke:none;fill-rule:nonzero;fill:rgb(89.803922%,20.784314%,67.058824%);fill-opacity:1;" d="M 38.636719 17.125 C 37.4375 15.039062 38.148438 12.375 40.238281 11.164062 C 42.324219 9.960938 44.988281 10.675781 46.199219 12.761719 C 47.398438 14.851562 46.6875 17.511719 44.601562 18.726562 C 42.511719 19.925781 39.835938 19.210938 38.636719 17.125 "/>
<path style=" stroke:none;fill-rule:nonzero;fill:rgb(89.803922%,20.784314%,67.058824%);fill-opacity:1;" d="M 25 49.476562 C 22.585938 49.476562 20.636719 47.523438 20.636719 45.113281 C 20.636719 42.699219 22.585938 40.75 25 40.75 C 27.414062 40.75 29.363281 42.699219 29.363281 45.113281 C 29.363281 47.511719 27.414062 49.476562 25 49.476562 "/>
<path style=" stroke:none;fill-rule:nonzero;fill:rgb(89.803922%,20.784314%,67.058824%);fill-opacity:1;" d="M 25 9.25 C 22.585938 9.25 20.636719 7.300781 20.636719 4.886719 C 20.636719 2.476562 22.585938 0.523438 25 0.523438 C 27.414062 0.523438 29.363281 2.476562 29.363281 4.886719 C 29.363281 7.300781 27.414062 9.25 25 9.25 "/>
</g>
</svg>
