<?xml version="1.0" encoding="UTF-8"?>
<svg xmlns="http://www.w3.org/2000/svg" xmlns:xlink="http://www.w3.org/1999/xlink" width="100px" height="100px" viewBox="0 0 100 100" version="1.1">
<g id="surface1">
<path style=" stroke:none;fill-rule:nonzero;fill:rgb(89.803922%,20.784314%,67.058824%);fill-opacity:1;" d="M 14.367188 75.664062 L 10.773438 73.589844 L 50.808594 4.246094 L 54.40625 6.320312 Z M 14.367188 75.664062 "/>
<path style=" stroke:none;fill-rule:nonzero;fill:rgb(89.803922%,20.784314%,67.058824%);fill-opacity:1;" d="M 9.949219 68.050781 L 90.023438 68.050781 L 90.023438 72.199219 L 9.949219 72.199219 Z M 9.949219 68.050781 "/>
<path style=" stroke:none;fill-rule:nonzero;fill:rgb(89.803922%,20.784314%,67.058824%);fill-opacity:1;" d="M 51.585938 93.507812 L 11.535156 70.382812 L 13.609375 66.789062 L 53.660156 89.914062 Z M 51.585938 93.507812 "/>
<path style=" stroke:none;fill-rule:nonzero;fill:rgb(89.803922%,20.784314%,67.058824%);fill-opacity:1;" d="M 86.378906 33.238281 L 46.328125 10.113281 L 48.402344 6.519531 L 88.457031 29.644531 Z M 86.378906 33.238281 "/>
<path style=" stroke:none;fill-rule:nonzero;fill:rgb(89.803922%,20.784314%,67.058824%);fill-opacity:1;" d="M 13.621094 33.222656 L 11.546875 29.628906 L 51.597656 6.503906 L 53.671875 10.097656 Z M 13.621094 33.222656 "/>
<path style=" stroke:none;fill-rule:nonzero;fill:rgb(89.803922%,20.784314%,67.058824%);fill-opacity:1;" d="M 85.640625 75.664062 L 45.605469 6.320312 L 49.199219 4.246094 L 89.234375 73.589844 Z M 85.640625 75.664062 "/>
<path style=" stroke:none;fill-rule:nonzero;fill:rgb(89.803922%,20.784314%,67.058824%);fill-opacity:1;" d="M 13.125 26.875 L 17.273438 26.875 L 17.273438 73.125 L 13.125 73.125 Z M 13.125 26.875 "/>
<path style=" stroke:none;fill-rule:nonzero;fill:rgb(89.803922%,20.784314%,67.058824%);fill-opacity:1;" d="M 82.726562 26.875 L 86.875 26.875 L 86.875 73.125 L 82.726562 73.125 Z M 82.726562 26.875 "/>
<path style=" stroke:none;fill-rule:nonzero;fill:rgb(89.803922%,20.784314%,67.058824%);fill-opacity:1;" d="M 50.878906 91.75 L 49.066406 88.609375 L 83.902344 68.496094 L 85.714844 71.636719 Z M 50.878906 91.75 "/>
<path style=" stroke:none;fill-rule:nonzero;fill:rgb(89.803922%,20.784314%,67.058824%);fill-opacity:1;" d="M 92.375 74.476562 C 89.976562 78.648438 84.625 80.074219 80.449219 77.675781 C 76.273438 75.273438 74.851562 69.925781 77.25 65.75 C 79.648438 61.574219 85 60.148438 89.175781 62.550781 C 93.375 64.976562 94.800781 70.300781 92.375 74.476562 "/>
<path style=" stroke:none;fill-rule:nonzero;fill:rgb(89.803922%,20.784314%,67.058824%);fill-opacity:1;" d="M 22.726562 34.25 C 20.324219 38.425781 14.976562 39.851562 10.800781 37.449219 C 6.625 35.050781 5.199219 29.699219 7.601562 25.523438 C 10 21.351562 15.351562 19.925781 19.523438 22.324219 C 23.699219 24.75 25.125 30.074219 22.726562 34.25 "/>
<path style=" stroke:none;fill-rule:nonzero;fill:rgb(89.803922%,20.784314%,67.058824%);fill-opacity:1;" d="M 7.625 74.476562 C 5.226562 70.300781 6.648438 64.976562 10.824219 62.550781 C 15 60.148438 20.324219 61.574219 22.75 65.75 C 25.148438 69.925781 23.726562 75.25 19.550781 77.675781 C 15.351562 80.074219 10.023438 78.648438 7.625 74.476562 "/>
<path style=" stroke:none;fill-rule:nonzero;fill:rgb(89.803922%,20.784314%,67.058824%);fill-opacity:1;" d="M 77.273438 34.25 C 74.875 30.074219 76.300781 24.75 80.476562 22.324219 C 84.648438 19.925781 89.976562 21.351562 92.398438 25.523438 C 94.800781 29.699219 93.375 35.023438 89.199219 37.449219 C 85.023438 39.851562 79.675781 38.425781 77.273438 34.25 "/>
<path style=" stroke:none;fill-rule:nonzero;fill:rgb(89.803922%,20.784314%,67.058824%);fill-opacity:1;" d="M 50 98.949219 C 45.175781 98.949219 41.273438 95.050781 41.273438 90.226562 C 41.273438 85.398438 45.175781 81.5 50 81.5 C 54.824219 81.5 58.726562 85.398438 58.726562 90.226562 C 58.726562 95.023438 54.824219 98.949219 50 98.949219 "/>
<path style=" stroke:none;fill-rule:nonzero;fill:rgb(89.803922%,20.784314%,67.058824%);fill-opacity:1;" d="M 50 18.5 C 45.175781 18.5 41.273438 14.601562 41.273438 9.773438 C 41.273438 4.949219 45.175781 1.050781 50 1.050781 C 54.824219 1.050781 58.726562 4.949219 58.726562 9.773438 C 58.726562 14.601562 54.824219 18.5 50 18.5 "/>
</g>
</svg>
