<?xml version="1.0" encoding="UTF-8"?>
<svg xmlns="http://www.w3.org/2000/svg" xmlns:xlink="http://www.w3.org/1999/xlink" width="50px" height="50px" viewBox="0 0 50 59" version="1.1">
<g id="surface1">
<path style=" stroke:none;fill-rule:nonzero;fill:rgb(0%,0%,0%);fill-opacity:1;" d="M 50 12.78125 C 49.949219 5.671875 43.941406 0 36.738281 0 L 13.273438 0 C 6.125 0 0.140625 5.582031 0.00390625 12.640625 C -0.0625 16.097656 1.285156 19.4375 3.742188 21.90625 C 6.195312 24.375 9.554688 25.765625 13.058594 25.769531 L 23.542969 25.769531 C 23.894531 25.78125 24.191406 26.027344 24.265625 26.367188 C 24.335938 26.707031 24.164062 27.050781 23.84375 27.199219 L 7.773438 34.152344 C 3.019531 36.234375 -0.03125 40.898438 0.00390625 46.03125 C 0.0546875 53.140625 6.058594 58.816406 13.265625 58.816406 L 18.761719 58.816406 C 26.019531 58.816406 32.058594 53.074219 32.046875 45.910156 C 32.03125 40.664062 28.800781 35.949219 23.871094 33.984375 C 23.59375 33.871094 23.410156 33.601562 23.40625 33.304688 C 23.402344 33.003906 23.582031 32.734375 23.859375 32.613281 L 42.242188 24.65625 C 46.988281 22.574219 50.035156 17.910156 50 12.78125 Z M 50 12.78125 "/>
</g>
</svg>
