<?xml version="1.0" encoding="UTF-8"?>
<svg xmlns="http://www.w3.org/2000/svg" xmlns:xlink="http://www.w3.org/1999/xlink" width="100px" height="100px" viewBox="0 0 100 119" version="1.1">
<g id="surface1">
<path style=" stroke:none;fill-rule:nonzero;fill:rgb(0%,0%,0%);fill-opacity:1;" d="M 100 25.777344 C 99.894531 11.4375 87.878906 0 73.476562 0 L 26.546875 0 C 12.253906 0 0.28125 11.257812 0.00390625 25.492188 C -0.121094 32.46875 2.574219 39.203125 7.484375 44.183594 C 12.394531 49.164062 19.109375 51.972656 26.117188 51.976562 L 47.085938 51.976562 C 47.789062 51.996094 48.382812 52.492188 48.527344 53.179688 C 48.671875 53.863281 48.328125 54.558594 47.691406 54.859375 L 15.546875 68.882812 C 6.039062 73.078125 -0.0625 82.488281 0.00390625 92.84375 C 0.113281 107.183594 12.121094 118.628906 26.527344 118.628906 L 37.527344 118.628906 C 52.035156 118.628906 64.117188 107.042969 64.09375 92.597656 C 64.066406 82.015625 57.601562 72.507812 47.742188 68.542969 C 47.183594 68.3125 46.816406 67.773438 46.8125 67.171875 C 46.808594 66.570312 47.164062 66.019531 47.71875 65.78125 L 84.480469 49.734375 C 93.980469 45.53125 100.074219 36.125 100 25.777344 Z M 100 25.777344 "/>
</g>
</svg>
