<?xml version="1.0" encoding="UTF-8"?>
<svg xmlns="http://www.w3.org/2000/svg" xmlns:xlink="http://www.w3.org/1999/xlink" width="50px" height="50px" viewBox="0 0 50 50" version="1.1">
<g id="surface1">
<rect x="0" y="0" width="50" height="50" style="fill:rgb(94.117647%,85.882353%,30.980392%);fill-opacity:1;stroke:none;"/>
<path style=" stroke:none;fill-rule:nonzero;fill:rgb(19.607843%,20%,18.823529%);fill-opacity:1;" d="M 45.90625 38.074219 C 45.542969 35.792969 44.054688 33.878906 39.648438 32.089844 C 38.117188 31.386719 36.410156 30.882812 35.902344 29.722656 C 35.722656 29.050781 35.699219 28.667969 35.8125 28.261719 C 36.140625 26.933594 37.722656 26.519531 38.976562 26.902344 C 39.785156 27.171875 40.550781 27.792969 41.011719 28.789062 C 43.171875 27.390625 43.164062 27.398438 44.671875 26.441406 C 44.121094 25.585938 43.824219 25.191406 43.464844 24.824219 C 42.167969 23.375 40.398438 22.628906 37.570312 22.683594 C 37.082031 22.746094 36.585938 22.8125 36.097656 22.875 C 34.6875 23.230469 33.339844 23.972656 32.550781 24.964844 C 30.183594 27.652344 30.859375 32.351562 33.742188 34.289062 C 36.578125 36.417969 40.746094 36.902344 41.277344 38.894531 C 41.796875 41.332031 39.488281 42.121094 37.191406 41.839844 C 35.5 41.488281 34.558594 40.628906 33.539062 39.0625 C 31.667969 40.148438 31.667969 40.148438 29.742188 41.253906 C 30.199219 42.253906 30.679688 42.703125 31.445312 43.570312 C 35.066406 47.242188 44.128906 47.0625 45.753906 41.5 C 45.820312 41.3125 46.257812 40.039062 45.90625 38.074219 Z M 27.179688 22.980469 L 22.503906 22.980469 C 22.503906 27.019531 22.484375 31.03125 22.484375 35.070312 C 22.484375 37.644531 22.617188 40 22.199219 40.722656 C 21.515625 42.144531 19.742188 41.96875 18.933594 41.691406 C 18.113281 41.289062 17.695312 40.710938 17.210938 39.898438 C 17.078125 39.667969 16.976562 39.488281 16.945312 39.472656 C 15.675781 40.246094 14.410156 41.027344 13.140625 41.800781 C 13.773438 43.097656 14.707031 44.226562 15.898438 44.957031 C 17.679688 46.027344 20.074219 46.355469 22.582031 45.78125 C 24.210938 45.304688 25.617188 44.320312 26.355469 42.824219 C 27.417969 40.859375 27.191406 38.484375 27.179688 35.855469 C 27.207031 31.570312 27.179688 27.28125 27.179688 22.980469 Z M 27.179688 22.980469 "/>
</g>
</svg>
