<?xml version="1.0" encoding="UTF-8"?>
<svg xmlns="http://www.w3.org/2000/svg" xmlns:xlink="http://www.w3.org/1999/xlink" width="100px" height="100px" viewBox="0 0 100 91" version="1.1">
<g id="surface1">
<path style=" stroke:none;fill-rule:nonzero;fill:rgb(7.058824%,40%,66.27451%);fill-opacity:1;" d="M 12.875 58.660156 C 12.960938 58.851562 13.058594 59.03125 13.160156 59.207031 C 13.210938 59.3125 13.277344 59.417969 13.335938 59.515625 C 13.433594 59.707031 13.535156 59.894531 13.636719 60.078125 L 14.21875 61.054688 C 14.328125 61.238281 14.433594 61.414062 14.554688 61.59375 C 14.757812 61.941406 15 62.28125 15.210938 62.628906 C 15.308594 62.773438 15.398438 62.917969 15.503906 63.0625 C 15.914062 63.695312 16.285156 64.21875 16.683594 64.730469 C 16.964844 65.113281 17.246094 65.488281 17.550781 65.859375 C 17.652344 66 17.761719 66.140625 17.867188 66.28125 L 18.6875 67.273438 C 18.789062 67.390625 18.886719 67.523438 18.996094 67.640625 C 19.359375 68.078125 19.746094 68.5 20.132812 68.929688 C 20.132812 68.9375 20.144531 68.945312 20.148438 68.957031 C 20.628906 69.554688 21.144531 70.089844 21.710938 70.5625 L 21.726562 70.578125 C 22.023438 70.878906 22.320312 71.179688 22.632812 71.476562 L 23.007812 71.835938 C 23.421875 72.21875 23.832031 72.601562 24.269531 72.972656 C 24.277344 72.972656 24.28125 72.980469 24.285156 72.984375 L 24.5 73.167969 C 24.878906 73.496094 25.261719 73.824219 25.648438 74.125 L 26.113281 74.515625 C 26.429688 74.765625 26.757812 75.003906 27.078125 75.253906 L 27.585938 75.636719 C 27.929688 75.894531 28.296875 76.148438 28.648438 76.398438 C 28.78125 76.492188 28.910156 76.585938 29.042969 76.671875 L 29.152344 76.753906 L 30.195312 77.4375 L 30.640625 77.730469 C 31.1875 78.082031 31.726562 78.40625 32.269531 78.730469 C 32.425781 78.808594 32.582031 78.894531 32.726562 78.984375 C 33.128906 79.214844 33.542969 79.445312 33.949219 79.65625 C 34.171875 79.785156 34.402344 79.890625 34.632812 80.003906 C 34.910156 80.160156 35.199219 80.3125 35.496094 80.46875 C 35.578125 80.492188 35.644531 80.519531 35.710938 80.558594 L 35.726562 80.542969 C 35.851562 80.597656 35.964844 80.65625 36.085938 80.714844 C 36.53125 80.9375 36.992188 81.148438 37.476562 81.355469 C 37.566406 81.394531 37.664062 81.429688 37.757812 81.484375 C 38.292969 81.714844 38.828125 81.9375 39.382812 82.152344 C 39.507812 82.191406 39.640625 82.253906 39.769531 82.300781 C 40.273438 82.488281 40.789062 82.683594 41.300781 82.863281 L 41.488281 82.929688 C 42.054688 83.121094 42.617188 83.308594 43.195312 83.480469 C 43.328125 83.519531 43.464844 83.566406 43.605469 83.605469 C 44.199219 83.78125 44.769531 83.992188 45.367188 84.101562 C 83.515625 91 94.597656 61.351562 94.597656 61.351562 C 85.285156 73.382812 68.757812 76.554688 53.105469 73.023438 C 52.527344 72.890625 51.945312 72.707031 51.359375 72.535156 C 50.53125 72.300781 49.710938 72.042969 48.898438 71.761719 L 49.25 71.867188 L 49.019531 71.78125 C 48.515625 71.609375 48.03125 71.421875 47.535156 71.230469 C 47.414062 71.179688 47.292969 71.132812 47.167969 71.089844 L 47.128906 71.082031 C 46.582031 70.863281 46.050781 70.640625 45.523438 70.40625 C 45.40625 70.371094 45.3125 70.316406 45.195312 70.273438 C 44.570312 70 43.953125 69.71875 43.339844 69.421875 L 43.851562 69.648438 C 43.71875 69.589844 43.585938 69.523438 43.457031 69.453125 C 43.109375 69.292969 42.761719 69.105469 42.417969 68.933594 C 42.160156 68.808594 41.902344 68.679688 41.648438 68.539062 L 41.722656 68.578125 C 41.304688 68.355469 40.886719 68.113281 40.460938 67.890625 C 40.335938 67.800781 40.191406 67.726562 40.046875 67.644531 C 39.417969 67.28125 38.796875 66.902344 38.183594 66.511719 L 38.414062 66.652344 C 38.257812 66.554688 38.105469 66.453125 37.957031 66.34375 L 37.976562 66.359375 C 37.578125 66.117188 37.1875 65.859375 36.804688 65.589844 C 36.679688 65.507812 36.5625 65.417969 36.433594 65.332031 C 36.03125 65.058594 35.640625 64.777344 35.253906 64.488281 L 35.339844 64.550781 C 35.183594 64.425781 35.019531 64.304688 34.851562 64.183594 C 34.523438 63.929688 34.195312 63.683594 33.867188 63.417969 L 33.429688 63.070312 C 32.960938 62.699219 32.503906 62.316406 32.054688 61.925781 L 32.050781 61.921875 L 30.761719 60.753906 L 30.390625 60.40625 C 30.085938 60.101562 29.773438 59.808594 29.464844 59.503906 L 29.101562 59.132812 C 28.71875 58.753906 28.34375 58.367188 27.976562 57.96875 L 27.957031 57.941406 L 27.890625 57.890625 C 27.5 57.460938 27.113281 57.023438 26.730469 56.582031 C 26.628906 56.46875 26.539062 56.347656 26.433594 56.222656 L 25.589844 55.207031 C 25.210938 54.730469 24.839844 54.246094 24.476562 53.757812 L 24.328125 53.550781 C 15.644531 41.792969 12.503906 25.570312 19.453125 12.257812 L 13.316406 19.992188 C 5.425781 31.242188 6.402344 45.871094 12.4375 57.816406 C 12.574219 58.109375 12.726562 58.382812 12.875 58.660156 Z M 12.875 58.660156 "/>
<path style=" stroke:none;fill-rule:nonzero;fill:rgb(0%,0%,0%);fill-opacity:1;" d="M 39.453125 42.453125 L 39.410156 42.394531 L 39.378906 42.351562 Z M 39.453125 42.453125 "/>
<path style=" stroke:none;fill-rule:nonzero;fill:rgb(7.058824%,40%,66.27451%);fill-opacity:1;" d="M 43.601562 47.308594 L 43.9375 47.644531 C 44.359375 48.050781 44.796875 48.445312 45.238281 48.84375 L 45.292969 48.890625 C 45.738281 49.285156 46.238281 49.695312 46.757812 50.09375 L 46.832031 50.152344 C 46.960938 50.238281 47.066406 50.339844 47.191406 50.421875 C 47.710938 50.824219 48.234375 51.203125 48.78125 51.585938 L 48.835938 51.621094 C 49.066406 51.785156 49.3125 51.9375 49.570312 52.101562 C 49.675781 52.167969 49.792969 52.257812 49.90625 52.324219 C 50.296875 52.574219 50.683594 52.808594 51.082031 53.046875 C 51.144531 53.074219 51.199219 53.105469 51.261719 53.132812 C 51.59375 53.335938 51.957031 53.53125 52.308594 53.710938 C 52.429688 53.785156 52.546875 53.839844 52.675781 53.910156 C 52.921875 54.03125 53.167969 54.164062 53.40625 54.289062 L 53.523438 54.339844 C 54.027344 54.585938 54.539062 54.8125 55.039062 55.039062 C 55.167969 55.089844 55.273438 55.128906 55.382812 55.179688 C 55.792969 55.359375 56.214844 55.527344 56.625 55.683594 C 56.8125 55.746094 56.984375 55.820312 57.160156 55.875 C 57.539062 56.015625 57.9375 56.148438 58.3125 56.277344 L 58.832031 56.441406 C 59.375 56.609375 59.921875 56.828125 60.5 56.917969 C 89.957031 61.75 96.773438 39.253906 96.773438 39.253906 C 90.636719 48.015625 78.757812 52.191406 66.097656 48.933594 C 65.464844 48.773438 64.839844 48.59375 64.21875 48.394531 L 64.429688 48.453125 C 64.253906 48.40625 64.097656 48.351562 63.925781 48.296875 C 63.539062 48.164062 63.144531 48.035156 62.769531 47.898438 L 62.234375 47.699219 C 61.816406 47.53125 61.394531 47.375 60.988281 47.199219 C 60.863281 47.144531 60.746094 47.105469 60.652344 47.050781 C 60.132812 46.816406 59.609375 46.589844 59.097656 46.34375 L 58.335938 45.949219 L 57.890625 45.726562 C 57.550781 45.546875 57.234375 45.363281 56.90625 45.175781 C 56.824219 45.136719 56.746094 45.089844 56.667969 45.039062 L 56.679688 45.042969 C 56.285156 44.800781 55.875 44.5625 55.496094 44.316406 C 55.371094 44.246094 55.253906 44.160156 55.136719 44.085938 L 54.363281 43.585938 C 53.828125 43.214844 53.304688 42.820312 52.773438 42.433594 C 52.65625 42.328125 52.542969 42.238281 52.425781 42.140625 C 46.859375 37.800781 42.472656 31.867188 40.386719 25.148438 C 38.191406 18.160156 38.675781 10.328125 42.46875 3.972656 L 37.808594 10.515625 C 32.085938 18.664062 32.40625 29.554688 36.863281 38.175781 C 37.675781 39.765625 38.5 41.109375 39.410156 42.390625 C 40.257812 43.597656 41.195312 45.011719 42.324219 45.980469 C 42.722656 46.4375 43.152344 46.871094 43.601562 47.308594 Z M 43.601562 47.308594 "/>
<path style=" stroke:none;fill-rule:nonzero;fill:rgb(0%,0%,0%);fill-opacity:1;" d="M 16.699219 64.753906 L 16.6875 64.730469 L 16.660156 64.699219 Z M 32.140625 62 L 32.175781 62.023438 L 32.183594 62.035156 Z M 32.140625 62 "/>
<path style=" stroke:none;fill-rule:nonzero;fill:rgb(7.058824%,40%,66.27451%);fill-opacity:1;" d="M 58.402344 3.433594 C 55.027344 8.34375 54.703125 14.445312 57.027344 19.859375 C 59.496094 25.613281 64.542969 30.128906 70.425781 32.269531 C 70.664062 32.363281 70.898438 32.441406 71.148438 32.527344 L 71.476562 32.628906 C 71.816406 32.734375 72.164062 32.863281 72.515625 32.941406 C 88.78125 36.054688 93.1875 24.65625 94.371094 22.976562 C 90.5 28.492188 84.003906 29.820312 76.035156 27.898438 C 75.34375 27.730469 74.660156 27.519531 73.992188 27.269531 L 74.117188 27.308594 C 73.285156 27.023438 72.472656 26.6875 71.679688 26.308594 L 71.820312 26.371094 C 70.296875 25.632812 68.992188 24.832031 67.777344 23.914062 C 60.65625 18.546875 56.25 8.324219 60.898438 0 Z M 58.402344 3.433594 "/>
</g>
</svg>
