<?xml version="1.0" encoding="UTF-8"?>
<svg xmlns="http://www.w3.org/2000/svg" xmlns:xlink="http://www.w3.org/1999/xlink" width="50px" height="50px" viewBox="0 0 50 45" version="1.1">
<g id="surface1">
<path style=" stroke:none;fill-rule:nonzero;fill:rgb(7.058824%,40%,66.27451%);fill-opacity:1;" d="M 6.4375 29.007812 C 6.480469 29.101562 6.527344 29.191406 6.582031 29.277344 C 6.605469 29.328125 6.636719 29.382812 6.667969 29.429688 C 6.714844 29.527344 6.769531 29.617188 6.820312 29.707031 L 7.109375 30.191406 C 7.164062 30.28125 7.214844 30.371094 7.277344 30.457031 C 7.378906 30.628906 7.5 30.796875 7.605469 30.96875 C 7.652344 31.042969 7.699219 31.113281 7.753906 31.183594 C 7.957031 31.496094 8.140625 31.757812 8.339844 32.011719 C 8.480469 32.199219 8.625 32.382812 8.777344 32.566406 C 8.824219 32.636719 8.882812 32.707031 8.933594 32.777344 L 9.34375 33.269531 C 9.394531 33.324219 9.445312 33.390625 9.496094 33.449219 C 9.679688 33.664062 9.871094 33.875 10.066406 34.085938 C 10.066406 34.089844 10.070312 34.09375 10.074219 34.097656 C 10.316406 34.394531 10.574219 34.660156 10.855469 34.894531 L 10.863281 34.902344 C 11.011719 35.050781 11.160156 35.199219 11.316406 35.34375 L 11.503906 35.523438 C 11.710938 35.714844 11.917969 35.902344 12.132812 36.085938 C 12.136719 36.085938 12.140625 36.089844 12.144531 36.089844 L 12.25 36.183594 C 12.4375 36.34375 12.628906 36.507812 12.824219 36.65625 L 13.058594 36.847656 C 13.214844 36.972656 13.378906 37.089844 13.539062 37.210938 L 13.792969 37.402344 C 13.964844 37.53125 14.148438 37.65625 14.324219 37.78125 C 14.390625 37.824219 14.453125 37.871094 14.523438 37.914062 L 14.574219 37.957031 L 15.097656 38.292969 L 15.320312 38.4375 C 15.59375 38.609375 15.863281 38.773438 16.136719 38.933594 C 16.214844 38.972656 16.292969 39.015625 16.363281 39.058594 C 16.5625 39.171875 16.773438 39.285156 16.972656 39.390625 C 17.085938 39.453125 17.199219 39.507812 17.316406 39.5625 C 17.457031 39.640625 17.601562 39.714844 17.75 39.792969 C 17.789062 39.804688 17.824219 39.816406 17.855469 39.835938 L 17.863281 39.828125 C 17.925781 39.855469 17.984375 39.886719 18.042969 39.914062 C 18.265625 40.023438 18.496094 40.128906 18.738281 40.230469 C 18.78125 40.25 18.832031 40.269531 18.878906 40.292969 C 19.148438 40.410156 19.414062 40.519531 19.691406 40.625 C 19.753906 40.644531 19.820312 40.675781 19.886719 40.699219 C 20.136719 40.792969 20.394531 40.886719 20.652344 40.976562 L 20.742188 41.007812 C 21.027344 41.105469 21.308594 41.195312 21.597656 41.28125 C 21.664062 41.300781 21.734375 41.324219 21.804688 41.34375 C 22.097656 41.429688 22.382812 41.535156 22.683594 41.589844 C 41.757812 45 47.300781 30.339844 47.300781 30.339844 C 42.640625 36.289062 34.378906 37.855469 26.554688 36.109375 C 26.261719 36.042969 25.972656 35.953125 25.679688 35.867188 C 25.265625 35.753906 24.855469 35.625 24.449219 35.488281 L 24.625 35.539062 L 24.511719 35.496094 C 24.257812 35.410156 24.015625 35.316406 23.769531 35.222656 C 23.707031 35.199219 23.644531 35.175781 23.585938 35.15625 L 23.5625 35.148438 C 23.289062 35.042969 23.023438 34.933594 22.761719 34.816406 C 22.703125 34.796875 22.65625 34.773438 22.597656 34.75 C 22.285156 34.617188 21.976562 34.476562 21.667969 34.328125 L 21.925781 34.441406 C 21.859375 34.410156 21.792969 34.378906 21.730469 34.347656 C 21.554688 34.265625 21.378906 34.171875 21.210938 34.085938 C 21.078125 34.027344 20.949219 33.960938 20.824219 33.894531 L 20.863281 33.910156 C 20.652344 33.800781 20.441406 33.683594 20.230469 33.570312 C 20.167969 33.527344 20.09375 33.492188 20.023438 33.449219 C 19.707031 33.269531 19.398438 33.082031 19.089844 32.890625 L 19.207031 32.960938 C 19.128906 32.914062 19.050781 32.863281 18.976562 32.808594 L 18.988281 32.816406 C 18.789062 32.695312 18.59375 32.566406 18.402344 32.433594 C 18.339844 32.394531 18.28125 32.351562 18.214844 32.304688 C 18.015625 32.171875 17.820312 32.03125 17.625 31.890625 L 17.671875 31.921875 C 17.59375 31.859375 17.507812 31.800781 17.425781 31.738281 C 17.261719 31.613281 17.097656 31.492188 16.933594 31.359375 L 16.714844 31.1875 C 16.480469 31.003906 16.253906 30.816406 16.027344 30.621094 L 15.382812 30.042969 L 15.195312 29.871094 C 15.042969 29.71875 14.886719 29.574219 14.730469 29.425781 L 14.550781 29.242188 C 14.359375 29.054688 14.171875 28.863281 13.988281 28.664062 L 13.976562 28.652344 L 13.945312 28.628906 C 13.75 28.414062 13.554688 28.199219 13.363281 27.980469 C 13.316406 27.925781 13.269531 27.863281 13.214844 27.804688 L 12.796875 27.300781 C 12.605469 27.066406 12.417969 26.824219 12.238281 26.585938 L 12.164062 26.480469 C 7.824219 20.667969 6.253906 12.644531 9.726562 6.0625 L 6.660156 9.886719 C 2.714844 15.449219 3.203125 22.683594 6.21875 28.589844 C 6.289062 28.734375 6.363281 28.871094 6.4375 29.007812 Z M 6.4375 29.007812 "/>
<path style=" stroke:none;fill-rule:nonzero;fill:rgb(0%,0%,0%);fill-opacity:1;" d="M 19.726562 20.992188 L 19.707031 20.964844 L 19.6875 20.941406 Z M 19.726562 20.992188 "/>
<path style=" stroke:none;fill-rule:nonzero;fill:rgb(7.058824%,40%,66.27451%);fill-opacity:1;" d="M 21.800781 23.394531 L 21.96875 23.558594 C 22.179688 23.761719 22.398438 23.957031 22.617188 24.152344 L 22.644531 24.175781 C 22.871094 24.371094 23.121094 24.574219 23.378906 24.773438 L 23.417969 24.800781 C 23.480469 24.84375 23.535156 24.894531 23.59375 24.933594 C 23.855469 25.132812 24.117188 25.320312 24.390625 25.507812 L 24.417969 25.527344 C 24.53125 25.609375 24.65625 25.683594 24.785156 25.765625 C 24.835938 25.796875 24.898438 25.839844 24.953125 25.875 C 25.148438 26 25.34375 26.113281 25.539062 26.234375 C 25.574219 26.246094 25.601562 26.261719 25.628906 26.273438 C 25.796875 26.375 25.980469 26.472656 26.152344 26.558594 C 26.214844 26.597656 26.273438 26.625 26.335938 26.660156 C 26.460938 26.71875 26.585938 26.785156 26.703125 26.847656 L 26.761719 26.871094 C 27.011719 26.992188 27.269531 27.105469 27.519531 27.21875 C 27.582031 27.242188 27.636719 27.261719 27.691406 27.285156 C 27.898438 27.375 28.105469 27.460938 28.3125 27.535156 C 28.40625 27.566406 28.492188 27.605469 28.582031 27.632812 C 28.769531 27.699219 28.96875 27.765625 29.15625 27.828125 L 29.414062 27.910156 C 29.6875 27.992188 29.960938 28.101562 30.25 28.144531 C 44.976562 30.535156 48.386719 19.410156 48.386719 19.410156 C 45.316406 23.746094 39.378906 25.808594 33.050781 24.195312 C 32.734375 24.117188 32.421875 24.03125 32.109375 23.929688 L 32.214844 23.960938 C 32.125 23.9375 32.046875 23.910156 31.964844 23.882812 C 31.769531 23.816406 31.570312 23.753906 31.382812 23.6875 L 31.117188 23.585938 C 30.910156 23.503906 30.695312 23.429688 30.496094 23.339844 C 30.429688 23.3125 30.375 23.292969 30.324219 23.265625 C 30.066406 23.152344 29.804688 23.039062 29.550781 22.917969 L 29.167969 22.722656 L 28.945312 22.613281 C 28.773438 22.523438 28.617188 22.433594 28.453125 22.339844 C 28.414062 22.320312 28.371094 22.296875 28.332031 22.273438 L 28.339844 22.273438 C 28.140625 22.152344 27.9375 22.035156 27.75 21.914062 C 27.683594 21.878906 27.628906 21.835938 27.570312 21.800781 L 27.183594 21.554688 C 26.914062 21.371094 26.652344 21.175781 26.386719 20.984375 C 26.328125 20.929688 26.269531 20.886719 26.214844 20.839844 C 23.429688 18.691406 21.234375 15.757812 20.195312 12.433594 C 19.097656 8.980469 19.339844 5.105469 21.234375 1.964844 L 18.902344 5.199219 C 16.042969 9.230469 16.203125 14.617188 18.433594 18.878906 C 18.839844 19.664062 19.25 20.328125 19.707031 20.960938 C 20.128906 21.558594 20.597656 22.257812 21.160156 22.738281 C 21.363281 22.964844 21.578125 23.175781 21.800781 23.394531 Z M 21.800781 23.394531 "/>
<path style=" stroke:none;fill-rule:nonzero;fill:rgb(0%,0%,0%);fill-opacity:1;" d="M 8.351562 32.019531 L 8.34375 32.011719 L 8.328125 31.992188 Z M 16.070312 30.660156 L 16.089844 30.671875 L 16.09375 30.675781 Z M 16.070312 30.660156 "/>
<path style=" stroke:none;fill-rule:nonzero;fill:rgb(7.058824%,40%,66.27451%);fill-opacity:1;" d="M 29.199219 1.695312 C 27.511719 4.125 27.351562 7.144531 28.511719 9.820312 C 29.75 12.664062 32.269531 14.898438 35.210938 15.957031 C 35.332031 16.003906 35.449219 16.042969 35.574219 16.085938 L 35.738281 16.136719 C 35.910156 16.1875 36.082031 16.25 36.257812 16.289062 C 44.390625 17.828125 46.59375 12.191406 47.1875 11.363281 C 45.25 14.089844 42.003906 14.746094 38.019531 13.796875 C 37.671875 13.710938 37.332031 13.609375 36.996094 13.484375 L 37.058594 13.503906 C 36.640625 13.363281 36.234375 13.199219 35.839844 13.011719 L 35.910156 13.042969 C 35.148438 12.675781 34.496094 12.28125 33.886719 11.824219 C 30.328125 9.171875 28.125 4.117188 30.449219 0 Z M 29.199219 1.695312 "/>
</g>
</svg>
