<?xml version="1.0" encoding="UTF-8"?>
<svg xmlns="http://www.w3.org/2000/svg" xmlns:xlink="http://www.w3.org/1999/xlink" width="50px" height="50px" viewBox="0 0 50 50" version="1.1">
<g id="surface1">
<path style=" stroke:none;fill-rule:evenodd;fill:rgb(100%,100%,100%);fill-opacity:1;" d="M 28.773438 13.449219 L 28.726562 0 L 21.226562 0 L 21.273438 13.449219 L 25.023438 18.601562 Z M 21.273438 36.5 L 21.273438 50 L 28.773438 50 L 28.773438 36.5 L 25.023438 31.351562 Z M 21.273438 36.5 "/>
<path style=" stroke:none;fill-rule:evenodd;fill:rgb(0%,94.901961%,90.196078%);fill-opacity:1;" d="M 28.773438 36.5 L 36.675781 47.398438 L 42.726562 43 L 34.824219 32.101562 L 28.773438 30.148438 Z M 21.273438 13.449219 L 13.324219 2.550781 L 7.273438 6.949219 L 15.175781 17.851562 L 21.273438 19.800781 Z M 21.273438 13.449219 "/>
<path style=" stroke:none;fill-rule:evenodd;fill:rgb(0%,72.54902%,94.509804%);fill-opacity:1;" d="M 15.175781 17.851562 L 2.375 13.699219 L 0.0742188 20.800781 L 12.875 25 L 18.925781 23 Z M 31.074219 26.949219 L 34.824219 32.101562 L 47.625 36.25 L 49.925781 29.148438 L 37.125 25 Z M 31.074219 26.949219 "/>
<path style=" stroke:none;fill-rule:evenodd;fill:rgb(83.921569%,22.745098%,100%);fill-opacity:1;" d="M 37.125 25 L 49.925781 20.800781 L 47.625 13.699219 L 34.824219 17.851562 L 31.074219 23 Z M 12.875 25 L 0.0742188 29.148438 L 2.375 36.25 L 15.175781 32.101562 L 18.925781 26.949219 Z M 12.875 25 "/>
<path style=" stroke:none;fill-rule:evenodd;fill:rgb(98.431373%,0.392157%,35.686275%);fill-opacity:1;" d="M 15.175781 32.101562 L 7.273438 43 L 13.324219 47.398438 L 21.273438 36.5 L 21.273438 30.148438 Z M 34.824219 17.851562 L 42.726562 6.949219 L 36.675781 2.550781 L 28.773438 13.449219 L 28.773438 19.800781 Z M 34.824219 17.851562 "/>
</g>
</svg>
