<?xml version="1.0" encoding="UTF-8"?>
<svg xmlns="http://www.w3.org/2000/svg" xmlns:xlink="http://www.w3.org/1999/xlink" width="100px" height="100px" viewBox="0 0 100 100" version="1.1">
<g id="surface1">
<path style=" stroke:none;fill-rule:evenodd;fill:rgb(100%,100%,100%);fill-opacity:1;" d="M 57.550781 26.898438 L 57.449219 0 L 42.449219 0 L 42.550781 26.898438 L 50.050781 37.199219 Z M 42.550781 73 L 42.550781 100 L 57.550781 100 L 57.550781 73 L 50.050781 62.699219 Z M 42.550781 73 "/>
<path style=" stroke:none;fill-rule:evenodd;fill:rgb(0%,94.901961%,90.196078%);fill-opacity:1;" d="M 57.550781 73 L 73.351562 94.800781 L 85.449219 86 L 69.648438 64.199219 L 57.550781 60.300781 Z M 42.550781 26.898438 L 26.648438 5.101562 L 14.550781 13.898438 L 30.351562 35.699219 L 42.550781 39.601562 Z M 42.550781 26.898438 "/>
<path style=" stroke:none;fill-rule:evenodd;fill:rgb(0%,72.54902%,94.509804%);fill-opacity:1;" d="M 30.351562 35.699219 L 4.75 27.398438 L 0.148438 41.601562 L 25.75 50 L 37.851562 46 Z M 62.148438 53.898438 L 69.648438 64.199219 L 95.25 72.5 L 99.851562 58.300781 L 74.25 50 Z M 62.148438 53.898438 "/>
<path style=" stroke:none;fill-rule:evenodd;fill:rgb(83.921569%,22.745098%,100%);fill-opacity:1;" d="M 74.25 50 L 99.851562 41.601562 L 95.25 27.398438 L 69.648438 35.699219 L 62.148438 46 Z M 25.75 50 L 0.148438 58.300781 L 4.75 72.5 L 30.351562 64.199219 L 37.851562 53.898438 Z M 25.75 50 "/>
<path style=" stroke:none;fill-rule:evenodd;fill:rgb(98.431373%,0.392157%,35.686275%);fill-opacity:1;" d="M 30.351562 64.199219 L 14.550781 86 L 26.648438 94.800781 L 42.550781 73 L 42.550781 60.300781 Z M 69.648438 35.699219 L 85.449219 13.898438 L 73.351562 5.101562 L 57.550781 26.898438 L 57.550781 39.601562 Z M 69.648438 35.699219 "/>
</g>
</svg>
