<?xml version="1.0" encoding="UTF-8"?>
<svg xmlns="http://www.w3.org/2000/svg" xmlns:xlink="http://www.w3.org/1999/xlink" width="100px" height="100px" viewBox="0 0 100 60" version="1.1">
<g id="surface1">
<path style=" stroke:none;fill-rule:nonzero;fill:rgb(0%,0%,0%);fill-opacity:1;" d="M 23.59375 15.65625 L 42.457031 15.65625 L 42.457031 17.148438 L 25.324219 17.148438 L 25.324219 28.363281 L 41.433594 28.363281 L 41.433594 29.851562 L 25.324219 29.851562 L 25.324219 42.164062 L 42.652344 42.164062 L 42.652344 43.65625 L 23.59375 43.65625 Z M 44.148438 15.65625 L 46.148438 15.65625 L 55.03125 27.96875 L 64.109375 15.65625 L 76.453125 0.015625 L 56.171875 29.265625 L 66.621094 43.65625 L 64.539062 43.65625 L 55.03125 30.558594 L 45.480469 43.65625 L 43.4375 43.65625 L 53.96875 29.265625 Z M 67.367188 17.148438 L 67.367188 15.65625 L 88.863281 15.65625 L 88.863281 17.144531 L 78.960938 17.144531 L 78.960938 43.65625 L 77.230469 43.65625 L 77.230469 17.148438 Z M 0 15.65625 L 2.160156 15.65625 L 31.960938 59.984375 L 19.648438 43.65625 L 1.808594 17.773438 L 1.730469 43.65625 L 0 43.65625 Z M 88.6875 41.714844 C 88.335938 41.714844 88.070312 41.445312 88.070312 41.089844 C 88.070312 40.742188 88.335938 40.46875 88.6875 40.46875 C 89.046875 40.46875 89.304688 40.738281 89.304688 41.089844 C 89.304688 41.441406 89.046875 41.714844 88.6875 41.714844 Z M 90.386719 40.074219 L 91.3125 40.074219 C 91.324219 40.574219 91.691406 40.90625 92.230469 40.90625 C 92.832031 40.90625 93.171875 40.546875 93.171875 39.875 L 93.171875 35.605469 L 94.113281 35.605469 L 94.113281 39.878906 C 94.113281 41.089844 93.40625 41.789062 92.238281 41.789062 C 91.140625 41.789062 90.386719 41.113281 90.386719 40.074219 Z M 95.34375 40.019531 L 96.277344 40.019531 C 96.359375 40.59375 96.921875 40.957031 97.734375 40.957031 C 98.492188 40.957031 99.046875 40.570312 99.046875 40.03125 C 99.046875 39.574219 98.691406 39.296875 97.890625 39.109375 L 97.105469 38.917969 C 96.007812 38.664062 95.507812 38.136719 95.507812 37.25 C 95.507812 36.175781 96.390625 35.457031 97.714844 35.457031 C 98.949219 35.457031 99.847656 36.171875 99.902344 37.191406 L 98.988281 37.191406 C 98.898438 36.632812 98.410156 36.285156 97.703125 36.285156 C 96.960938 36.285156 96.464844 36.644531 96.464844 37.1875 C 96.464844 37.617188 96.78125 37.863281 97.574219 38.050781 L 98.242188 38.210938 C 99.488281 38.5 100 39.003906 100 39.910156 C 100 41.066406 99.101562 41.789062 97.664062 41.789062 C 96.316406 41.789062 95.414062 41.101562 95.34375 40.019531 Z M 95.34375 40.019531 "/>
</g>
</svg>
