<?xml version="1.0" encoding="UTF-8"?>
<svg xmlns="http://www.w3.org/2000/svg" xmlns:xlink="http://www.w3.org/1999/xlink" width="50px" height="50px" viewBox="0 0 50 30" version="1.1">
<g id="surface1">
<path style=" stroke:none;fill-rule:nonzero;fill:rgb(0%,0%,0%);fill-opacity:1;" d="M 11.796875 7.828125 L 21.226562 7.828125 L 21.226562 8.574219 L 12.664062 8.574219 L 12.664062 14.179688 L 20.71875 14.179688 L 20.71875 14.925781 L 12.664062 14.925781 L 12.664062 21.082031 L 21.328125 21.082031 L 21.328125 21.828125 L 11.796875 21.828125 Z M 22.074219 7.828125 L 23.074219 7.828125 L 27.515625 13.984375 L 32.054688 7.828125 L 38.226562 0.0078125 L 28.085938 14.632812 L 33.3125 21.828125 L 32.269531 21.828125 L 27.515625 15.277344 L 22.742188 21.828125 L 21.71875 21.828125 L 26.984375 14.632812 Z M 33.683594 8.574219 L 33.683594 7.828125 L 44.429688 7.828125 L 44.429688 8.574219 L 39.480469 8.574219 L 39.480469 21.828125 L 38.617188 21.828125 L 38.617188 8.574219 Z M 0 7.828125 L 1.082031 7.828125 L 15.980469 29.992188 L 9.824219 21.828125 L 0.902344 8.886719 L 0.863281 21.828125 L 0 21.828125 Z M 44.34375 20.859375 C 44.167969 20.859375 44.035156 20.722656 44.035156 20.546875 C 44.035156 20.371094 44.167969 20.234375 44.34375 20.234375 C 44.523438 20.234375 44.652344 20.371094 44.652344 20.546875 C 44.652344 20.722656 44.523438 20.859375 44.34375 20.859375 Z M 45.195312 20.039062 L 45.65625 20.039062 C 45.664062 20.285156 45.84375 20.453125 46.113281 20.453125 C 46.414062 20.453125 46.585938 20.273438 46.585938 19.9375 L 46.585938 17.800781 L 47.054688 17.800781 L 47.054688 19.9375 C 47.054688 20.546875 46.703125 20.894531 46.117188 20.894531 C 45.570312 20.894531 45.195312 20.554688 45.195312 20.039062 Z M 47.671875 20.011719 L 48.140625 20.011719 C 48.179688 20.296875 48.460938 20.480469 48.867188 20.480469 C 49.246094 20.480469 49.523438 20.285156 49.523438 20.015625 C 49.523438 19.785156 49.347656 19.648438 48.945312 19.554688 L 48.554688 19.460938 C 48.003906 19.332031 47.753906 19.070312 47.753906 18.625 C 47.753906 18.085938 48.195312 17.730469 48.859375 17.730469 C 49.472656 17.730469 49.925781 18.085938 49.953125 18.59375 L 49.492188 18.59375 C 49.449219 18.316406 49.207031 18.144531 48.851562 18.144531 C 48.480469 18.144531 48.230469 18.320312 48.230469 18.59375 C 48.230469 18.808594 48.390625 18.933594 48.785156 19.023438 L 49.121094 19.105469 C 49.742188 19.25 50 19.5 50 19.957031 C 50 20.535156 49.550781 20.894531 48.832031 20.894531 C 48.15625 20.894531 47.707031 20.550781 47.671875 20.011719 Z M 47.671875 20.011719 "/>
</g>
</svg>
