<?xml version="1.0" encoding="UTF-8"?>
<svg xmlns="http://www.w3.org/2000/svg" xmlns:xlink="http://www.w3.org/1999/xlink" width="50px" height="19px" viewBox="0 0 48 19" version="1.1">
<g id="surface1">
<path style=" stroke:none;fill-rule:nonzero;fill:rgb(79.607843%,21.960784%,21.568627%);fill-opacity:1;" d="M 0 0 L 48 0 L 48 16.285156 L 24 16.285156 L 24 19 L 13.332031 19 L 13.332031 16.285156 L 0 16.285156 Z M 2.667969 13.570312 L 8 13.570312 L 8 5.429688 L 10.667969 5.429688 L 10.667969 13.570312 L 13.332031 13.570312 L 13.332031 2.714844 L 2.667969 2.714844 Z M 16 2.714844 L 16 16.285156 L 21.332031 16.285156 L 21.332031 13.570312 L 26.667969 13.570312 L 26.667969 2.714844 Z M 21.332031 5.429688 L 24 5.429688 L 24 10.855469 L 21.332031 10.855469 Z M 29.332031 2.714844 L 29.332031 13.570312 L 34.667969 13.570312 L 34.667969 5.429688 L 37.332031 5.429688 L 37.332031 13.570312 L 40 13.570312 L 40 5.429688 L 42.667969 5.429688 L 42.667969 13.570312 L 45.332031 13.570312 L 45.332031 2.714844 Z M 29.332031 2.714844 "/>
<path style=" stroke:none;fill-rule:nonzero;fill:rgb(100%,100%,100%);fill-opacity:1;" d="M 2.667969 13.570312 L 8 13.570312 L 8 5.429688 L 10.667969 5.429688 L 10.667969 13.570312 L 13.332031 13.570312 L 13.332031 2.714844 L 2.667969 2.714844 Z M 2.667969 13.570312 "/>
<path style=" stroke:none;fill-rule:nonzero;fill:rgb(100%,100%,100%);fill-opacity:1;" d="M 16 2.714844 L 16 16.285156 L 21.332031 16.285156 L 21.332031 13.570312 L 26.667969 13.570312 L 26.667969 2.714844 Z M 24 10.855469 L 21.332031 10.855469 L 21.332031 5.429688 L 24 5.429688 Z M 24 10.855469 "/>
<path style=" stroke:none;fill-rule:nonzero;fill:rgb(100%,100%,100%);fill-opacity:1;" d="M 29.332031 2.714844 L 29.332031 13.570312 L 34.667969 13.570312 L 34.667969 5.429688 L 37.332031 5.429688 L 37.332031 13.570312 L 40 13.570312 L 40 5.429688 L 42.667969 5.429688 L 42.667969 13.570312 L 45.332031 13.570312 L 45.332031 2.714844 Z M 29.332031 2.714844 "/>
</g>
</svg>
