<?xml version="1.0" encoding="UTF-8"?>
<svg xmlns="http://www.w3.org/2000/svg" xmlns:xlink="http://www.w3.org/1999/xlink" width="200px" height="78px" viewBox="0 0 200 78" version="1.1">
<g id="surface1">
<path style=" stroke:none;fill-rule:nonzero;fill:rgb(79.607843%,21.960784%,21.568627%);fill-opacity:1;" d="M 0 0 L 200 0 L 200 66.855469 L 100 66.855469 L 100 78 L 55.554688 78 L 55.554688 66.855469 L 0 66.855469 Z M 11.109375 55.714844 L 33.332031 55.714844 L 33.332031 22.285156 L 44.445312 22.285156 L 44.445312 55.714844 L 55.554688 55.714844 L 55.554688 11.144531 L 11.109375 11.144531 Z M 66.667969 11.144531 L 66.667969 66.855469 L 88.890625 66.855469 L 88.890625 55.714844 L 111.109375 55.714844 L 111.109375 11.144531 Z M 88.890625 22.285156 L 100 22.285156 L 100 44.570312 L 88.890625 44.570312 Z M 122.222656 11.144531 L 122.222656 55.714844 L 144.445312 55.714844 L 144.445312 22.285156 L 155.554688 22.285156 L 155.554688 55.714844 L 166.667969 55.714844 L 166.667969 22.285156 L 177.777344 22.285156 L 177.777344 55.714844 L 188.890625 55.714844 L 188.890625 11.144531 Z M 122.222656 11.144531 "/>
<path style=" stroke:none;fill-rule:nonzero;fill:rgb(100%,100%,100%);fill-opacity:1;" d="M 11.109375 55.714844 L 33.332031 55.714844 L 33.332031 22.285156 L 44.445312 22.285156 L 44.445312 55.714844 L 55.554688 55.714844 L 55.554688 11.144531 L 11.109375 11.144531 Z M 11.109375 55.714844 "/>
<path style=" stroke:none;fill-rule:nonzero;fill:rgb(100%,100%,100%);fill-opacity:1;" d="M 66.667969 11.144531 L 66.667969 66.855469 L 88.890625 66.855469 L 88.890625 55.714844 L 111.109375 55.714844 L 111.109375 11.144531 Z M 100 44.570312 L 88.890625 44.570312 L 88.890625 22.285156 L 100 22.285156 Z M 100 44.570312 "/>
<path style=" stroke:none;fill-rule:nonzero;fill:rgb(100%,100%,100%);fill-opacity:1;" d="M 122.222656 11.144531 L 122.222656 55.714844 L 144.445312 55.714844 L 144.445312 22.285156 L 155.554688 22.285156 L 155.554688 55.714844 L 166.667969 55.714844 L 166.667969 22.285156 L 177.777344 22.285156 L 177.777344 55.714844 L 188.890625 55.714844 L 188.890625 11.144531 Z M 122.222656 11.144531 "/>
</g>
</svg>
