<?xml version="1.0" encoding="UTF-8"?>
<svg xmlns="http://www.w3.org/2000/svg" xmlns:xlink="http://www.w3.org/1999/xlink" width="100px" height="100px" viewBox="0 0 100 103" version="1.1">
<g id="surface1">
<path style=" stroke:none;fill-rule:nonzero;fill:rgb(0%,0%,0%);fill-opacity:1;" d="M 99.613281 61.671875 C 99.011719 59.859375 97.441406 58.59375 95.410156 58.292969 C 94.453125 58.148438 93.355469 58.210938 92.058594 58.476562 C 89.796875 58.941406 88.117188 59.121094 86.890625 59.15625 C 91.515625 51.359375 95.277344 42.46875 97.441406 34.097656 C 100.941406 20.566406 99.070312 14.402344 96.882812 11.613281 C 91.101562 4.230469 82.660156 0.265625 72.480469 0.144531 C 67.050781 0.078125 62.28125 1.148438 59.796875 1.917969 C 57.480469 1.511719 54.992188 1.285156 52.378906 1.242188 C 47.480469 1.164062 43.152344 2.230469 39.457031 4.421875 C 37.410156 3.730469 34.125 2.753906 30.332031 2.132812 C 21.40625 0.671875 14.214844 1.808594 8.957031 5.523438 C 2.585938 10.015625 -0.367188 17.820312 0.179688 28.726562 C 0.351562 32.1875 2.292969 42.71875 5.34375 52.710938 C 7.101562 58.453125 8.972656 63.21875 10.90625 66.882812 C 13.652344 72.078125 16.589844 75.136719 19.886719 76.234375 C 21.734375 76.847656 25.09375 77.28125 28.625 74.34375 C 29.070312 74.882812 29.667969 75.421875 30.460938 75.921875 C 31.46875 76.554688 32.699219 77.074219 33.929688 77.378906 C 38.359375 78.488281 42.507812 78.210938 46.046875 76.660156 C 46.070312 77.289062 46.085938 77.890625 46.101562 78.40625 C 46.125 79.25 46.148438 80.074219 46.179688 80.847656 C 46.386719 86.0625 46.742188 90.121094 47.796875 92.957031 C 47.855469 93.113281 47.933594 93.351562 48.015625 93.605469 C 48.539062 95.210938 49.417969 97.902344 51.652344 100.007812 C 53.96875 102.1875 56.765625 102.859375 59.332031 102.859375 C 60.617188 102.859375 61.84375 102.691406 62.921875 102.460938 C 66.757812 101.636719 71.113281 100.386719 74.265625 95.90625 C 77.246094 91.667969 78.691406 85.289062 78.953125 75.234375 C 78.988281 74.949219 79.019531 74.679688 79.050781 74.417969 L 79.113281 73.886719 L 79.816406 73.949219 L 79.996094 73.960938 C 83.902344 74.140625 88.679688 73.3125 91.613281 71.953125 C 93.933594 70.875 101.363281 66.960938 99.613281 61.671875 "/>
<path style=" stroke:none;fill-rule:nonzero;fill:rgb(20%,40.392157%,56.862745%);fill-opacity:1;" d="M 92.933594 62.699219 C 81.316406 65.09375 80.515625 61.164062 80.515625 61.164062 C 92.78125 42.988281 97.910156 19.917969 93.484375 14.269531 C 81.414062 -1.132812 60.515625 6.152344 60.167969 6.339844 L 60.054688 6.359375 C 57.761719 5.882812 55.191406 5.601562 52.304688 5.554688 C 47.046875 5.46875 43.0625 6.929688 40.035156 9.222656 C 40.035156 9.222656 2.757812 -6.117188 4.492188 28.511719 C 4.859375 35.875 15.0625 84.246094 27.234375 69.636719 C 31.679688 64.292969 35.980469 59.777344 35.980469 59.777344 C 38.113281 61.191406 40.667969 61.914062 43.347656 61.65625 L 43.554688 61.480469 C 43.492188 62.144531 43.519531 62.792969 43.640625 63.558594 C 40.503906 67.058594 41.425781 67.671875 35.160156 68.960938 C 28.816406 70.265625 32.542969 72.589844 34.976562 73.195312 C 37.921875 73.933594 44.746094 74.976562 49.355469 68.53125 L 49.171875 69.265625 C 50.398438 70.25 51.261719 75.660156 51.117188 80.5625 C 50.972656 85.464844 50.875 88.832031 51.84375 91.460938 C 52.8125 94.089844 53.777344 100.003906 62.015625 98.242188 C 68.898438 96.769531 72.46875 92.953125 72.964844 86.582031 C 73.316406 82.054688 74.113281 82.722656 74.164062 78.675781 L 74.800781 76.757812 C 75.539062 70.621094 74.917969 68.640625 79.160156 69.5625 L 80.191406 69.652344 C 83.3125 69.796875 87.398438 69.152344 89.796875 68.039062 C 94.960938 65.644531 98.023438 61.648438 92.929688 62.699219 L 92.933594 62.699219 "/>
<path style=" stroke:none;fill-rule:nonzero;fill:rgb(100%,100%,100%);fill-opacity:1;" d="M 42.21875 31.804688 C 41.171875 31.660156 40.222656 31.792969 39.742188 32.15625 C 39.472656 32.359375 39.390625 32.597656 39.367188 32.757812 C 39.304688 33.191406 39.609375 33.667969 39.796875 33.914062 C 40.320312 34.609375 41.089844 35.085938 41.847656 35.191406 C 41.960938 35.207031 42.070312 35.214844 42.179688 35.214844 C 43.445312 35.214844 44.597656 34.230469 44.699219 33.5 C 44.828125 32.589844 43.5 31.984375 42.21875 31.804688 M 76.898438 31.832031 C 76.796875 31.117188 75.527344 30.914062 74.316406 31.082031 C 73.113281 31.25 71.941406 31.792969 72.039062 32.511719 C 72.117188 33.066406 73.125 34.015625 74.316406 34.015625 C 74.417969 34.015625 74.519531 34.011719 74.621094 33.996094 C 75.417969 33.886719 76 33.382812 76.277344 33.089844 C 76.699219 32.648438 76.945312 32.152344 76.898438 31.832031 "/>
<path style=" stroke:none;fill-rule:nonzero;fill:rgb(100%,100%,100%);fill-opacity:1;" d="M 96.796875 62.429688 C 96.355469 61.089844 94.929688 60.660156 92.558594 61.148438 C 85.527344 62.597656 83.007812 61.59375 82.179688 60.984375 C 87.648438 52.667969 92.144531 42.613281 94.570312 33.234375 C 95.71875 28.789062 96.355469 24.664062 96.40625 21.300781 C 96.464844 17.609375 95.835938 14.894531 94.535156 13.238281 C 89.300781 6.558594 81.617188 2.972656 72.316406 2.875 C 65.921875 2.804688 60.519531 4.4375 59.472656 4.898438 C 57.269531 4.351562 54.863281 4.015625 52.246094 3.972656 C 47.445312 3.894531 43.296875 5.042969 39.863281 7.382812 C 38.371094 6.828125 34.511719 5.503906 29.796875 4.746094 C 21.644531 3.433594 15.164062 4.429688 10.542969 7.699219 C 5.023438 11.601562 2.476562 18.578125 2.972656 28.4375 C 3.136719 31.753906 5.03125 41.957031 8.015625 51.726562 C 11.945312 64.585938 16.21875 71.867188 20.714844 73.363281 C 21.238281 73.539062 21.847656 73.660156 22.515625 73.660156 C 24.15625 73.660156 26.167969 72.921875 28.257812 70.410156 C 30.808594 67.355469 33.449219 64.371094 36.171875 61.46875 C 37.941406 62.414062 39.882812 62.945312 41.867188 62.996094 C 41.871094 63.046875 41.875 63.101562 41.878906 63.152344 C 41.539062 63.558594 41.203125 63.972656 40.875 64.390625 C 39.5 66.136719 39.214844 66.5 34.785156 67.410156 C 33.527344 67.667969 30.179688 68.355469 30.132812 70.699219 C 30.078125 73.257812 34.085938 74.332031 34.542969 74.445312 C 36.132812 74.84375 37.667969 75.042969 39.128906 75.042969 C 42.6875 75.042969 45.816406 73.875 48.316406 71.617188 C 48.238281 80.738281 48.621094 89.730469 49.714844 92.46875 C 50.613281 94.710938 52.808594 100.191406 59.742188 100.191406 C 60.757812 100.191406 61.878906 100.070312 63.109375 99.808594 C 70.34375 98.257812 73.484375 95.066406 74.703125 88.023438 C 75.351562 84.261719 76.46875 75.277344 76.992188 70.457031 C 78.101562 70.804688 79.527344 70.960938 81.070312 70.960938 C 84.285156 70.960938 87.996094 70.277344 90.320312 69.199219 C 92.9375 67.988281 97.652344 65.011719 96.796875 62.429688 Z M 79.570312 29.859375 C 79.546875 31.285156 79.347656 32.574219 79.140625 33.921875 C 78.917969 35.375 78.6875 36.871094 78.628906 38.691406 C 78.570312 40.464844 78.792969 42.304688 79.007812 44.085938 C 79.4375 47.683594 79.882812 51.386719 78.164062 55.039062 C 77.878906 54.535156 77.625 54.011719 77.402344 53.476562 C 77.1875 52.957031 76.722656 52.128906 76.082031 50.976562 C 73.582031 46.5 67.730469 36.015625 70.726562 31.738281 C 71.617188 30.464844 73.882812 29.15625 79.570312 29.859375 Z M 72.675781 5.757812 C 81.011719 5.941406 87.601562 9.054688 92.269531 15.011719 C 95.847656 19.578125 91.90625 40.367188 80.496094 58.300781 C 80.382812 58.15625 80.265625 58.011719 80.148438 57.867188 L 80.003906 57.683594 C 82.953125 52.820312 82.378906 48.007812 81.863281 43.742188 C 81.652344 41.992188 81.453125 40.339844 81.503906 38.785156 C 81.558594 37.140625 81.777344 35.726562 81.988281 34.363281 C 82.246094 32.679688 82.507812 30.9375 82.4375 28.886719 C 82.492188 28.671875 82.511719 28.414062 82.484375 28.113281 C 82.296875 26.144531 80.046875 20.253906 75.460938 14.925781 C 72.953125 12.007812 69.296875 8.746094 64.300781 6.542969 C 66.449219 6.097656 69.386719 5.683594 72.675781 5.757812 Z M 26.042969 68.574219 C 23.738281 71.339844 22.148438 70.808594 21.625 70.636719 C 18.214844 69.5 14.257812 62.300781 10.769531 50.886719 C 7.75 41.011719 5.984375 31.078125 5.847656 28.292969 C 5.40625 19.484375 7.542969 13.347656 12.199219 10.046875 C 19.78125 4.679688 32.242188 7.894531 37.25 9.523438 C 37.179688 9.59375 37.101562 9.660156 37.03125 9.730469 C 28.816406 18.019531 29.007812 32.179688 29.03125 33.042969 C 29.027344 33.378906 29.058594 33.851562 29.09375 34.5 C 29.238281 36.882812 29.5 41.316406 28.796875 46.335938 C 28.144531 51 29.582031 55.566406 32.746094 58.863281 C 33.070312 59.199219 33.414062 59.519531 33.769531 59.824219 C 32.359375 61.332031 29.300781 64.660156 26.042969 68.574219 Z M 34.824219 56.871094 C 32.277344 54.214844 31.117188 50.519531 31.648438 46.734375 C 32.390625 41.429688 32.117188 36.8125 31.96875 34.332031 C 31.949219 33.984375 31.929688 33.679688 31.921875 33.441406 C 33.121094 32.378906 38.683594 29.402344 42.648438 30.308594 C 44.460938 30.722656 45.5625 31.953125 46.023438 34.070312 C 48.394531 45.035156 46.335938 49.605469 44.679688 53.277344 C 44.339844 54.03125 44.019531 54.746094 43.742188 55.488281 L 43.53125 56.058594 C 42.992188 57.503906 42.488281 58.847656 42.175781 60.125 C 39.464844 60.117188 36.828125 58.960938 34.824219 56.871094 Z M 35.242188 71.65625 C 34.449219 71.460938 33.738281 71.117188 33.320312 70.832031 C 33.667969 70.667969 34.289062 70.445312 35.367188 70.222656 C 40.578125 69.152344 41.382812 68.398438 43.136719 66.167969 C 43.539062 65.660156 43.996094 65.078125 44.628906 64.375 C 45.574219 63.320312 46.003906 63.5 46.785156 63.824219 C 47.417969 64.085938 48.035156 64.875 48.285156 65.75 C 48.402344 66.160156 48.535156 66.941406 48.101562 67.550781 C 44.429688 72.683594 39.082031 72.617188 35.242188 71.65625 Z M 62.507812 96.996094 C 56.132812 98.359375 53.875 95.113281 52.390625 91.398438 C 51.429688 89.003906 50.957031 78.195312 51.292969 66.257812 C 51.296875 66.097656 51.273438 65.945312 51.230469 65.800781 C 51.191406 65.515625 51.132812 65.234375 51.050781 64.957031 C 50.554688 63.222656 49.34375 61.769531 47.886719 61.167969 C 47.308594 60.925781 46.246094 60.488281 44.972656 60.8125 C 45.246094 59.695312 45.714844 58.433594 46.226562 57.0625 L 46.441406 56.488281 C 46.683594 55.839844 46.988281 55.167969 47.308594 54.457031 C 49.039062 50.613281 51.410156 45.351562 48.835938 33.464844 C 47.871094 29.011719 44.652344 26.835938 39.773438 27.34375 C 36.847656 27.644531 34.167969 28.824219 32.835938 29.5 C 32.546875 29.644531 32.285156 29.785156 32.039062 29.921875 C 32.410156 25.433594 33.820312 17.050781 39.085938 11.746094 C 42.402344 8.40625 46.816406 6.757812 52.199219 6.847656 C 62.800781 7.019531 69.597656 12.453125 73.433594 16.980469 C 76.742188 20.882812 78.53125 24.8125 79.246094 26.933594 C 73.875 26.386719 70.21875 27.445312 68.367188 30.089844 C 64.335938 35.84375 70.570312 47.011719 73.566406 52.378906 C 74.117188 53.359375 74.589844 54.210938 74.742188 54.574219 C 75.714844 56.933594 76.980469 58.511719 77.902344 59.660156 C 78.183594 60.015625 78.460938 60.355469 78.667969 60.65625 C 77.039062 61.125 74.117188 62.207031 74.382812 67.617188 C 74.167969 70.332031 72.640625 83.046875 71.863281 87.535156 C 70.839844 93.46875 68.652344 95.679688 62.507812 96.996094 Z M 89.109375 66.59375 C 87.445312 67.363281 84.660156 67.941406 82.015625 68.066406 C 79.09375 68.203125 77.605469 67.738281 77.257812 67.453125 C 77.09375 64.082031 78.347656 63.730469 79.679688 63.355469 C 79.886719 63.300781 80.089844 63.242188 80.289062 63.171875 C 80.410156 63.273438 80.546875 63.371094 80.691406 63.46875 C 83.039062 65.015625 87.230469 65.183594 93.140625 63.964844 L 93.207031 63.949219 C 92.410156 64.695312 91.046875 65.695312 89.109375 66.59375 Z M 89.109375 66.59375 "/>
</g>
</svg>
