<?xml version="1.0" encoding="UTF-8"?>
<svg xmlns="http://www.w3.org/2000/svg" xmlns:xlink="http://www.w3.org/1999/xlink" width="50px" height="50px" viewBox="0 0 50 51" version="1.1">
<g id="surface1">
<path style=" stroke:none;fill-rule:nonzero;fill:rgb(0%,0%,0%);fill-opacity:1;" d="M 49.804688 30.535156 C 49.507812 29.636719 48.722656 29.011719 47.707031 28.863281 C 47.226562 28.792969 46.679688 28.820312 46.027344 28.953125 C 44.898438 29.183594 44.058594 29.273438 43.445312 29.289062 C 45.757812 25.429688 47.636719 21.027344 48.71875 16.882812 C 50.46875 10.183594 49.535156 7.128906 48.441406 5.75 C 45.550781 2.09375 41.332031 0.132812 36.242188 0.0703125 C 33.523438 0.0390625 31.140625 0.570312 29.898438 0.949219 C 28.738281 0.75 27.496094 0.636719 26.1875 0.613281 C 23.742188 0.578125 21.578125 1.105469 19.726562 2.1875 C 18.703125 1.847656 17.0625 1.363281 15.164062 1.054688 C 10.703125 0.332031 7.109375 0.894531 4.476562 2.734375 C 1.292969 4.957031 -0.183594 8.824219 0.0898438 14.222656 C 0.175781 15.9375 1.144531 21.152344 2.671875 26.097656 C 3.550781 28.941406 4.484375 31.304688 5.453125 33.117188 C 6.824219 35.6875 8.292969 37.203125 9.941406 37.746094 C 10.867188 38.050781 12.546875 38.265625 14.3125 36.808594 C 14.535156 37.078125 14.835938 37.34375 15.230469 37.59375 C 15.734375 37.90625 16.347656 38.164062 16.964844 38.316406 C 19.179688 38.863281 21.253906 38.726562 23.023438 37.957031 C 23.035156 38.269531 23.042969 38.566406 23.050781 38.824219 C 23.0625 39.238281 23.074219 39.648438 23.089844 40.03125 C 23.195312 42.613281 23.371094 44.621094 23.898438 46.027344 C 23.925781 46.105469 23.964844 46.222656 24.007812 46.347656 C 24.269531 47.144531 24.710938 48.476562 25.828125 49.519531 C 26.984375 50.597656 28.382812 50.929688 29.664062 50.929688 C 30.308594 50.929688 30.921875 50.847656 31.460938 50.730469 C 33.378906 50.324219 35.554688 49.707031 37.132812 47.488281 C 38.621094 45.390625 39.347656 42.230469 39.476562 37.25 C 39.496094 37.109375 39.511719 36.976562 39.523438 36.847656 L 39.554688 36.585938 L 39.90625 36.617188 L 39.996094 36.621094 C 41.953125 36.710938 44.339844 36.300781 45.808594 35.625 C 46.964844 35.09375 50.679688 33.15625 49.804688 30.535156 "/>
<path style=" stroke:none;fill-rule:nonzero;fill:rgb(20%,40.392157%,56.862745%);fill-opacity:1;" d="M 46.464844 31.046875 C 40.65625 32.230469 40.257812 30.285156 40.257812 30.285156 C 46.390625 21.285156 48.953125 9.863281 46.742188 7.066406 C 40.707031 -0.5625 30.257812 3.046875 30.082031 3.140625 L 30.027344 3.148438 C 28.878906 2.914062 27.597656 2.773438 26.152344 2.75 C 23.523438 2.707031 21.53125 3.429688 20.019531 4.566406 C 20.019531 4.566406 1.378906 -3.027344 2.246094 14.117188 C 2.429688 17.765625 7.53125 41.714844 13.617188 34.480469 C 15.839844 31.835938 17.988281 29.597656 17.988281 29.597656 C 19.058594 30.300781 20.335938 30.65625 21.675781 30.527344 L 21.777344 30.441406 C 21.746094 30.769531 21.761719 31.089844 21.820312 31.472656 C 20.253906 33.203125 20.714844 33.507812 17.578125 34.144531 C 14.410156 34.792969 16.269531 35.941406 17.488281 36.242188 C 18.960938 36.609375 22.371094 37.125 24.675781 33.933594 L 24.585938 34.296875 C 25.199219 34.785156 25.632812 37.460938 25.558594 39.890625 C 25.484375 42.316406 25.4375 43.984375 25.921875 45.285156 C 26.40625 46.589844 26.886719 49.515625 31.007812 48.644531 C 34.449219 47.914062 36.234375 46.023438 36.480469 42.871094 C 36.65625 40.628906 37.054688 40.960938 37.082031 38.957031 L 37.402344 38.007812 C 37.769531 34.96875 37.460938 33.988281 39.582031 34.445312 L 40.097656 34.488281 C 41.65625 34.558594 43.699219 34.238281 44.898438 33.6875 C 47.480469 32.503906 49.011719 30.527344 46.464844 31.046875 "/>
<path style=" stroke:none;fill-rule:nonzero;fill:rgb(100%,100%,100%);fill-opacity:1;" d="M 21.109375 15.746094 C 20.585938 15.675781 20.109375 15.742188 19.871094 15.921875 C 19.738281 16.023438 19.695312 16.140625 19.683594 16.21875 C 19.652344 16.433594 19.804688 16.671875 19.898438 16.792969 C 20.160156 17.136719 20.542969 17.371094 20.925781 17.425781 C 20.980469 17.433594 21.035156 17.4375 21.089844 17.4375 C 21.722656 17.4375 22.300781 16.949219 22.351562 16.589844 C 22.414062 16.136719 21.75 15.835938 21.109375 15.746094 M 38.449219 15.761719 C 38.398438 15.40625 37.761719 15.308594 37.160156 15.390625 C 36.554688 15.472656 35.972656 15.742188 36.019531 16.097656 C 36.058594 16.371094 36.5625 16.84375 37.15625 16.84375 C 37.207031 16.84375 37.257812 16.839844 37.308594 16.832031 C 37.707031 16.777344 38 16.527344 38.136719 16.386719 C 38.347656 16.164062 38.472656 15.921875 38.449219 15.761719 "/>
<path style=" stroke:none;fill-rule:nonzero;fill:rgb(100%,100%,100%);fill-opacity:1;" d="M 48.398438 30.910156 C 48.175781 30.25 47.464844 30.035156 46.28125 30.277344 C 42.761719 30.996094 41.503906 30.496094 41.089844 30.195312 C 43.824219 26.078125 46.074219 21.101562 47.285156 16.457031 C 47.859375 14.253906 48.179688 12.210938 48.203125 10.546875 C 48.234375 8.71875 47.917969 7.375 47.269531 6.554688 C 44.652344 3.246094 40.808594 1.472656 36.160156 1.425781 C 32.960938 1.386719 30.261719 2.199219 29.738281 2.425781 C 28.632812 2.152344 27.433594 1.988281 26.125 1.964844 C 23.722656 1.929688 21.648438 2.496094 19.929688 3.65625 C 19.183594 3.378906 17.257812 2.726562 14.898438 2.351562 C 10.820312 1.699219 7.582031 2.191406 5.269531 3.8125 C 2.511719 5.746094 1.238281 9.199219 1.484375 14.082031 C 1.570312 15.722656 2.515625 20.773438 4.007812 25.613281 C 5.972656 31.980469 8.109375 35.585938 10.355469 36.324219 C 10.621094 36.414062 10.921875 36.472656 11.257812 36.472656 C 12.078125 36.472656 13.082031 36.109375 14.128906 34.863281 C 15.40625 33.351562 16.722656 31.875 18.085938 30.433594 C 18.96875 30.90625 19.941406 31.167969 20.933594 31.191406 C 20.933594 31.21875 20.9375 31.242188 20.941406 31.269531 C 20.769531 31.472656 20.601562 31.675781 20.4375 31.882812 C 19.75 32.746094 19.605469 32.925781 17.394531 33.378906 C 16.761719 33.503906 15.089844 33.847656 15.066406 35.007812 C 15.039062 36.273438 17.042969 36.804688 17.273438 36.863281 C 18.066406 37.058594 18.832031 37.15625 19.566406 37.15625 C 21.34375 37.15625 22.90625 36.578125 24.15625 35.460938 C 24.121094 39.976562 24.308594 44.429688 24.859375 45.785156 C 25.308594 46.894531 26.40625 49.609375 29.871094 49.609375 C 30.378906 49.609375 30.9375 49.550781 31.554688 49.417969 C 35.171875 48.652344 36.742188 47.070312 37.351562 43.585938 C 37.675781 41.722656 38.234375 37.273438 38.496094 34.886719 C 39.050781 35.058594 39.761719 35.136719 40.535156 35.136719 C 42.140625 35.136719 43.996094 34.796875 45.160156 34.265625 C 46.46875 33.664062 48.828125 32.191406 48.398438 30.910156 Z M 39.785156 14.785156 C 39.773438 15.488281 39.675781 16.128906 39.570312 16.796875 C 39.457031 17.515625 39.34375 18.257812 39.3125 19.160156 C 39.285156 20.035156 39.394531 20.949219 39.503906 21.828125 C 39.71875 23.609375 39.941406 25.445312 39.082031 27.253906 C 38.9375 27.003906 38.8125 26.742188 38.699219 26.476562 C 38.59375 26.222656 38.363281 25.8125 38.039062 25.242188 C 36.792969 23.023438 33.863281 17.832031 35.363281 15.714844 C 35.808594 15.085938 36.941406 14.4375 39.785156 14.785156 Z M 36.339844 2.851562 C 40.503906 2.941406 43.800781 4.484375 46.136719 7.433594 C 47.925781 9.695312 45.953125 19.988281 40.25 28.867188 C 40.191406 28.796875 40.132812 28.722656 40.074219 28.652344 L 40.003906 28.5625 C 41.476562 26.15625 41.1875 23.773438 40.933594 21.660156 C 40.828125 20.792969 40.726562 19.972656 40.753906 19.203125 C 40.777344 18.390625 40.886719 17.691406 40.992188 17.015625 C 41.121094 16.179688 41.253906 15.320312 41.21875 14.300781 C 41.246094 14.195312 41.257812 14.070312 41.242188 13.921875 C 41.148438 12.945312 40.023438 10.03125 37.730469 7.390625 C 36.476562 5.945312 34.648438 4.328125 32.152344 3.238281 C 33.226562 3.019531 34.695312 2.816406 36.339844 2.851562 Z M 13.023438 33.953125 C 11.871094 35.324219 11.074219 35.0625 10.8125 34.976562 C 9.109375 34.414062 7.128906 30.847656 5.382812 25.195312 C 3.875 20.304688 2.992188 15.386719 2.921875 14.007812 C 2.703125 9.648438 3.773438 6.609375 6.101562 4.976562 C 9.890625 2.316406 16.121094 3.910156 18.625 4.714844 C 18.589844 4.75 18.550781 4.78125 18.515625 4.820312 C 14.40625 8.921875 14.503906 15.933594 14.515625 16.363281 C 14.515625 16.527344 14.527344 16.761719 14.546875 17.082031 C 14.617188 18.261719 14.75 20.457031 14.398438 22.941406 C 14.070312 25.253906 14.792969 27.511719 16.375 29.144531 C 16.535156 29.3125 16.707031 29.472656 16.882812 29.621094 C 16.179688 30.367188 14.652344 32.015625 13.023438 33.953125 Z M 17.414062 28.160156 C 16.136719 26.84375 15.558594 25.015625 15.824219 23.140625 C 16.195312 20.515625 16.058594 18.226562 15.984375 17 C 15.972656 16.828125 15.964844 16.675781 15.960938 16.558594 C 16.558594 16.03125 19.339844 14.558594 21.324219 15.007812 C 22.230469 15.210938 22.78125 15.820312 23.011719 16.871094 C 24.199219 22.296875 23.167969 24.5625 22.339844 26.378906 C 22.171875 26.753906 22.007812 27.109375 21.871094 27.472656 L 21.765625 27.757812 C 21.496094 28.472656 21.242188 29.140625 21.089844 29.769531 C 19.734375 29.765625 18.414062 29.195312 17.414062 28.160156 Z M 17.621094 35.480469 C 17.226562 35.382812 16.867188 35.214844 16.660156 35.074219 C 16.835938 34.992188 17.144531 34.882812 17.683594 34.769531 C 20.289062 34.242188 20.691406 33.867188 21.570312 32.761719 C 21.769531 32.511719 22 32.222656 22.316406 31.875 C 22.785156 31.351562 23 31.441406 23.390625 31.601562 C 23.707031 31.730469 24.015625 32.125 24.140625 32.554688 C 24.203125 32.757812 24.269531 33.148438 24.050781 33.449219 C 22.214844 35.988281 19.542969 35.957031 17.621094 35.480469 Z M 31.253906 48.027344 C 28.066406 48.703125 26.9375 47.09375 26.195312 45.257812 C 25.714844 44.070312 25.480469 38.71875 25.644531 32.808594 C 25.648438 32.730469 25.636719 32.652344 25.617188 32.582031 C 25.59375 32.441406 25.566406 32.300781 25.527344 32.164062 C 25.277344 31.304688 24.671875 30.585938 23.945312 30.285156 C 23.65625 30.167969 23.125 29.949219 22.488281 30.113281 C 22.621094 29.558594 22.859375 28.933594 23.113281 28.253906 L 23.222656 27.96875 C 23.339844 27.648438 23.492188 27.316406 23.652344 26.964844 C 24.519531 25.0625 25.703125 22.457031 24.417969 16.570312 C 23.9375 14.363281 22.328125 13.289062 19.886719 13.539062 C 18.421875 13.6875 17.085938 14.273438 16.417969 14.605469 C 16.273438 14.679688 16.140625 14.746094 16.019531 14.816406 C 16.207031 12.59375 16.910156 8.441406 19.542969 5.816406 C 21.199219 4.164062 23.410156 3.347656 26.097656 3.390625 C 31.398438 3.476562 34.800781 6.164062 36.71875 8.40625 C 38.371094 10.339844 39.265625 12.285156 39.625 13.335938 C 36.9375 13.066406 35.109375 13.589844 34.183594 14.898438 C 32.167969 17.75 35.285156 23.277344 36.785156 25.933594 C 37.058594 26.421875 37.296875 26.84375 37.371094 27.019531 C 37.859375 28.191406 38.488281 28.972656 38.949219 29.542969 C 39.09375 29.714844 39.230469 29.886719 39.332031 30.035156 C 38.519531 30.265625 37.058594 30.800781 37.191406 33.480469 C 37.085938 34.824219 36.320312 41.121094 35.933594 43.34375 C 35.421875 46.28125 34.328125 47.375 31.253906 48.027344 Z M 44.554688 32.972656 C 43.722656 33.355469 42.332031 33.640625 41.007812 33.703125 C 39.546875 33.769531 38.804688 33.542969 38.628906 33.398438 C 38.546875 31.730469 39.175781 31.554688 39.839844 31.371094 C 39.945312 31.34375 40.046875 31.3125 40.144531 31.28125 C 40.207031 31.328125 40.273438 31.378906 40.347656 31.425781 C 41.519531 32.191406 43.613281 32.273438 46.570312 31.671875 L 46.605469 31.664062 C 46.203125 32.035156 45.523438 32.527344 44.554688 32.972656 Z M 44.554688 32.972656 "/>
</g>
</svg>
