<?xml version="1.0" encoding="UTF-8"?>
<svg xmlns="http://www.w3.org/2000/svg" xmlns:xlink="http://www.w3.org/1999/xlink" width="100px" height="100px" viewBox="0 0 100 113" version="1.1">
<g id="surface1">
<path style=" stroke:none;fill-rule:nonzero;fill:rgb(38.039216%,85.490196%,98.431373%);fill-opacity:1;" d="M 100 56.511719 C 100 49.941406 91.703125 43.714844 78.984375 39.855469 C 81.921875 26.996094 80.617188 16.769531 74.867188 13.496094 C 73.542969 12.726562 71.992188 12.363281 70.300781 12.363281 L 70.300781 16.871094 C 71.238281 16.871094 71.992188 17.054688 72.625 17.394531 C 75.398438 18.972656 76.601562 24.976562 75.664062 32.699219 C 75.4375 34.597656 75.070312 36.597656 74.621094 38.640625 C 70.628906 37.671875 66.265625 36.921875 61.679688 36.4375 C 58.929688 32.699219 56.074219 29.300781 53.199219 26.332031 C 59.84375 20.207031 66.082031 16.851562 70.320312 16.851562 L 70.320312 12.34375 C 64.714844 12.34375 57.378906 16.304688 49.960938 23.175781 C 42.539062 16.34375 35.203125 12.425781 29.597656 12.425781 L 29.597656 16.929688 C 33.816406 16.929688 40.074219 20.265625 46.71875 26.351562 C 43.863281 29.324219 41.011719 32.699219 38.300781 36.4375 C 33.695312 36.921875 29.332031 37.671875 25.335938 38.660156 C 24.867188 36.640625 24.519531 34.679688 24.277344 32.800781 C 23.320312 25.078125 24.5 19.074219 27.253906 17.476562 C 27.863281 17.113281 28.660156 16.953125 29.597656 16.953125 L 29.597656 12.445312 C 27.882812 12.445312 26.335938 12.808594 24.988281 13.574219 C 19.261719 16.851562 17.976562 27.058594 20.933594 39.875 C 8.253906 43.753906 0 49.960938 0 56.511719 C 0 63.078125 8.296875 69.304688 21.015625 73.167969 C 18.078125 86.023438 19.382812 96.25 25.132812 99.523438 C 26.457031 100.292969 28.007812 100.65625 29.71875 100.65625 C 35.324219 100.65625 42.660156 96.695312 50.082031 89.824219 C 57.5 96.65625 64.839844 100.574219 70.445312 100.574219 C 72.15625 100.574219 73.707031 100.210938 75.050781 99.445312 C 80.777344 96.167969 82.0625 85.960938 79.105469 73.144531 C 91.746094 69.285156 100 63.058594 100 56.511719 Z M 73.460938 43.027344 C 72.707031 45.636719 71.769531 48.324219 70.710938 51.011719 C 69.875 49.394531 68.996094 47.777344 68.039062 46.160156 C 67.101562 44.542969 66.101562 42.96875 65.105469 41.429688 C 68 41.855469 70.789062 42.378906 73.460938 43.027344 Z M 64.125 64.554688 C 62.535156 67.285156 60.90625 69.871094 59.214844 72.277344 C 56.175781 72.539062 53.097656 72.679688 50 72.679688 C 46.921875 72.679688 43.84375 72.539062 40.828125 72.296875 C 39.136719 69.890625 37.484375 67.324219 35.894531 64.617188 C 34.34375 61.96875 32.9375 59.28125 31.65625 56.570312 C 32.917969 53.863281 34.34375 51.152344 35.875 48.503906 C 37.464844 45.777344 39.09375 43.1875 40.785156 40.785156 C 43.824219 40.519531 46.902344 40.378906 50 40.378906 C 53.078125 40.378906 56.15625 40.519531 59.171875 40.761719 C 60.863281 43.167969 62.515625 45.734375 64.105469 48.445312 C 65.65625 51.09375 67.0625 53.78125 68.34375 56.488281 C 67.0625 59.199219 65.65625 61.90625 64.125 64.554688 Z M 70.710938 61.925781 C 71.808594 64.636719 72.746094 67.34375 73.523438 69.972656 C 70.851562 70.621094 68.039062 71.164062 65.125 71.589844 C 66.125 70.03125 67.121094 68.4375 68.058594 66.800781 C 68.996094 65.183594 69.875 63.542969 70.710938 61.925781 Z M 50.039062 83.496094 C 48.144531 81.554688 46.25 79.390625 44.375 77.027344 C 46.207031 77.109375 48.082031 77.167969 49.980469 77.167969 C 51.894531 77.167969 53.792969 77.128906 55.644531 77.027344 C 53.8125 79.390625 51.917969 81.554688 50.039062 83.496094 Z M 34.875 71.589844 C 31.980469 71.164062 29.1875 70.640625 26.519531 69.992188 C 27.273438 67.386719 28.210938 64.695312 29.269531 62.007812 C 30.105469 63.625 30.984375 65.242188 31.941406 66.859375 C 32.898438 68.476562 33.875 70.054688 34.875 71.589844 Z M 49.9375 29.523438 C 51.835938 31.464844 53.730469 33.628906 55.605469 35.992188 C 53.769531 35.914062 51.894531 35.851562 50 35.851562 C 48.082031 35.851562 46.1875 35.890625 44.332031 35.992188 C 46.167969 33.628906 48.0625 31.464844 49.9375 29.523438 Z M 34.855469 41.429688 C 33.855469 42.988281 32.859375 44.582031 31.921875 46.222656 C 30.984375 47.839844 30.105469 49.457031 29.269531 51.074219 C 28.167969 48.363281 27.230469 45.65625 26.457031 43.027344 C 29.128906 42.402344 31.941406 41.855469 34.855469 41.429688 Z M 16.410156 66.738281 C 9.191406 63.6875 4.523438 59.683594 4.523438 56.511719 C 4.523438 53.335938 9.191406 49.3125 16.410156 46.28125 C 18.160156 45.535156 20.078125 44.867188 22.054688 44.242188 C 23.214844 48.203125 24.746094 52.324219 26.640625 56.550781 C 24.765625 60.753906 23.257812 64.859375 22.117188 68.800781 C 20.097656 68.171875 18.183594 67.484375 16.410156 66.738281 Z M 27.375 95.625 C 24.601562 94.046875 23.398438 88.042969 24.335938 80.320312 C 24.5625 78.421875 24.929688 76.421875 25.378906 74.378906 C 29.371094 75.347656 33.734375 76.097656 38.320312 76.582031 C 41.070312 80.320312 43.925781 83.71875 46.800781 86.6875 C 40.15625 92.8125 33.917969 96.167969 29.679688 96.167969 C 28.761719 96.148438 27.984375 95.96875 27.375 95.625 Z M 75.722656 80.222656 C 76.679688 87.941406 75.5 93.945312 72.746094 95.542969 C 72.136719 95.90625 71.339844 96.070312 70.402344 96.070312 C 66.183594 96.070312 59.925781 92.734375 53.28125 86.648438 C 56.136719 83.675781 58.988281 80.300781 61.699219 76.5625 C 66.304688 76.078125 70.667969 75.328125 74.664062 74.339844 C 75.132812 76.378906 75.5 78.339844 75.722656 80.222656 Z M 83.570312 66.738281 C 81.816406 67.484375 79.902344 68.152344 77.925781 68.78125 C 76.761719 64.816406 75.234375 60.695312 73.339844 56.46875 C 75.214844 52.265625 76.722656 48.160156 77.863281 44.21875 C 79.882812 44.847656 81.796875 45.535156 83.589844 46.28125 C 90.808594 49.335938 95.476562 53.335938 95.476562 56.511719 C 95.453125 59.683594 90.785156 63.707031 83.570312 66.738281 Z M 83.570312 66.738281 "/>
<path style=" stroke:none;fill-rule:nonzero;fill:rgb(38.039216%,85.490196%,98.431373%);fill-opacity:1;" d="M 59.292969 56.511719 C 59.292969 61.613281 55.125 65.746094 49.980469 65.746094 C 44.835938 65.746094 40.664062 61.613281 40.664062 56.511719 C 40.664062 51.410156 44.835938 47.273438 49.980469 47.273438 C 55.125 47.273438 59.292969 51.410156 59.292969 56.511719 Z M 59.292969 56.511719 "/>
</g>
</svg>
