<?xml version="1.0" encoding="UTF-8"?>
<svg xmlns="http://www.w3.org/2000/svg" xmlns:xlink="http://www.w3.org/1999/xlink" width="50px" height="50px" viewBox="0 0 50 56" version="1.1">
<g id="surface1">
<path style=" stroke:none;fill-rule:nonzero;fill:rgb(38.039216%,85.490196%,98.431373%);fill-opacity:1;" d="M 50 28.003906 C 50 24.75 45.851562 21.664062 39.492188 19.75 C 40.960938 13.378906 40.308594 8.3125 37.433594 6.6875 C 36.769531 6.308594 35.996094 6.125 35.152344 6.125 L 35.152344 8.359375 C 35.621094 8.359375 35.996094 8.449219 36.3125 8.621094 C 37.699219 9.402344 38.300781 12.378906 37.832031 16.203125 C 37.71875 17.144531 37.535156 18.136719 37.3125 19.148438 C 35.3125 18.667969 33.132812 18.296875 30.839844 18.058594 C 29.464844 16.203125 28.035156 14.523438 26.601562 13.050781 C 29.921875 10.015625 33.042969 8.351562 35.160156 8.351562 L 35.160156 6.117188 C 32.359375 6.117188 28.6875 8.082031 24.980469 11.484375 C 21.269531 8.101562 17.601562 6.15625 14.796875 6.15625 L 14.796875 8.390625 C 16.90625 8.390625 20.035156 10.042969 23.359375 13.058594 C 21.933594 14.53125 20.503906 16.203125 19.148438 18.058594 C 16.847656 18.296875 14.664062 18.667969 12.667969 19.160156 C 12.433594 18.15625 12.261719 17.1875 12.136719 16.253906 C 11.660156 12.429688 12.25 9.453125 13.625 8.660156 C 13.933594 8.480469 14.328125 8.402344 14.796875 8.402344 L 14.796875 6.167969 C 13.941406 6.167969 13.167969 6.347656 12.496094 6.726562 C 9.632812 8.351562 8.988281 13.410156 10.464844 19.761719 C 4.128906 21.683594 0 24.757812 0 28.003906 C 0 31.261719 4.148438 34.347656 10.507812 36.257812 C 9.039062 42.628906 9.691406 47.699219 12.566406 49.320312 C 13.230469 49.703125 14.003906 49.882812 14.859375 49.882812 C 17.660156 49.882812 21.332031 47.917969 25.039062 44.515625 C 28.75 47.898438 32.417969 49.84375 35.222656 49.84375 C 36.078125 49.84375 36.851562 49.664062 37.527344 49.28125 C 40.390625 47.660156 41.03125 42.601562 39.554688 36.25 C 45.871094 34.335938 50 31.25 50 28.003906 Z M 36.730469 21.324219 C 36.351562 22.617188 35.882812 23.949219 35.355469 25.28125 C 34.9375 24.480469 34.5 23.675781 34.019531 22.875 C 33.550781 22.074219 33.050781 21.292969 32.550781 20.53125 C 34 20.742188 35.394531 21.003906 36.730469 21.324219 Z M 32.0625 31.992188 C 31.269531 33.34375 30.453125 34.625 29.605469 35.820312 C 28.089844 35.949219 26.550781 36.019531 25 36.019531 C 23.460938 36.019531 21.921875 35.949219 20.414062 35.828125 C 19.566406 34.636719 18.742188 33.363281 17.949219 32.023438 C 17.171875 30.710938 16.46875 29.378906 15.828125 28.035156 C 16.460938 26.691406 17.171875 25.351562 17.9375 24.039062 C 18.730469 22.6875 19.546875 21.402344 20.394531 20.210938 C 21.910156 20.082031 23.449219 20.011719 25 20.011719 C 26.539062 20.011719 28.078125 20.082031 29.585938 20.203125 C 30.433594 21.394531 31.257812 22.664062 32.050781 24.007812 C 32.828125 25.320312 33.53125 26.652344 34.171875 27.996094 C 33.53125 29.335938 32.828125 30.679688 32.0625 31.992188 Z M 35.355469 30.691406 C 35.90625 32.03125 36.375 33.375 36.761719 34.675781 C 35.425781 34.996094 34.019531 35.269531 32.5625 35.476562 C 33.0625 34.707031 33.5625 33.914062 34.03125 33.105469 C 34.5 32.300781 34.9375 31.492188 35.355469 30.691406 Z M 25.019531 41.378906 C 24.074219 40.417969 23.125 39.34375 22.1875 38.171875 C 23.105469 38.210938 24.042969 38.242188 24.988281 38.242188 C 25.949219 38.242188 26.894531 38.222656 27.824219 38.171875 C 26.90625 39.34375 25.957031 40.417969 25.019531 41.378906 Z M 17.4375 35.476562 C 15.992188 35.269531 14.59375 35.007812 13.257812 34.6875 C 13.636719 33.394531 14.105469 32.0625 14.636719 30.730469 C 15.054688 31.53125 15.492188 32.332031 15.96875 33.132812 C 16.449219 33.933594 16.9375 34.714844 17.4375 35.476562 Z M 24.96875 14.632812 C 25.917969 15.59375 26.863281 16.664062 27.800781 17.835938 C 26.886719 17.796875 25.949219 17.765625 25 17.765625 C 24.042969 17.765625 23.09375 17.789062 22.167969 17.835938 C 23.082031 16.664062 24.03125 15.59375 24.96875 14.632812 Z M 17.425781 20.53125 C 16.929688 21.304688 16.429688 22.09375 15.960938 22.90625 C 15.492188 23.707031 15.054688 24.507812 14.636719 25.308594 C 14.085938 23.96875 13.617188 22.625 13.230469 21.324219 C 14.5625 21.011719 15.96875 20.742188 17.425781 20.53125 Z M 8.203125 33.074219 C 4.597656 31.5625 2.261719 29.578125 2.261719 28.003906 C 2.261719 26.433594 4.597656 24.4375 8.203125 22.9375 C 9.082031 22.566406 10.039062 22.234375 11.027344 21.925781 C 11.609375 23.886719 12.371094 25.929688 13.320312 28.023438 C 12.382812 30.109375 11.628906 32.140625 11.058594 34.09375 C 10.050781 33.785156 9.089844 33.445312 8.203125 33.074219 Z M 13.6875 47.390625 C 12.300781 46.605469 11.699219 43.632812 12.167969 39.804688 C 12.28125 38.863281 12.464844 37.871094 12.6875 36.859375 C 14.6875 37.339844 16.867188 37.710938 19.160156 37.953125 C 20.535156 39.804688 21.964844 41.488281 23.398438 42.960938 C 20.078125 45.996094 16.957031 47.660156 14.839844 47.660156 C 14.378906 47.648438 13.992188 47.558594 13.6875 47.390625 Z M 37.863281 39.753906 C 38.339844 43.582031 37.75 46.558594 36.375 47.347656 C 36.066406 47.527344 35.671875 47.609375 35.203125 47.609375 C 33.09375 47.609375 29.964844 45.957031 26.640625 42.941406 C 28.066406 41.46875 29.496094 39.796875 30.851562 37.941406 C 33.152344 37.703125 35.335938 37.332031 37.332031 36.839844 C 37.566406 37.851562 37.75 38.824219 37.863281 39.753906 Z M 41.785156 33.074219 C 40.910156 33.445312 39.949219 33.773438 38.960938 34.085938 C 38.382812 32.121094 37.617188 30.078125 36.667969 27.984375 C 37.605469 25.902344 38.359375 23.867188 38.933594 21.914062 C 39.941406 22.226562 40.898438 22.566406 41.796875 22.9375 C 45.402344 24.449219 47.738281 26.433594 47.738281 28.003906 C 47.726562 29.578125 45.394531 31.570312 41.785156 33.074219 Z M 41.785156 33.074219 "/>
<path style=" stroke:none;fill-rule:nonzero;fill:rgb(38.039216%,85.490196%,98.431373%);fill-opacity:1;" d="M 29.648438 28.003906 C 29.648438 30.535156 27.5625 32.582031 24.988281 32.582031 C 22.417969 32.582031 20.332031 30.535156 20.332031 28.003906 C 20.332031 25.476562 22.417969 23.425781 24.988281 23.425781 C 27.5625 23.425781 29.648438 25.476562 29.648438 28.003906 Z M 29.648438 28.003906 "/>
</g>
</svg>
