<?xml version="1.0" encoding="UTF-8"?>
<svg xmlns="http://www.w3.org/2000/svg" xmlns:xlink="http://www.w3.org/1999/xlink" width="100px" height="100px" viewBox="0 0 100 59" version="1.1">
<g id="surface1">
<path style=" stroke:none;fill-rule:nonzero;fill:rgb(2.352941%,71.372549%,83.137255%);fill-opacity:1;" d="M 50 0 C 36.671875 0 28.339844 6.554688 25.007812 19.664062 C 30.007812 13.109375 35.839844 10.652344 42.503906 12.289062 C 46.304688 13.226562 49.023438 15.941406 52.03125 18.945312 C 56.929688 23.835938 62.601562 29.5 74.992188 29.5 C 88.316406 29.5 96.648438 22.945312 99.980469 9.832031 C 94.984375 16.386719 89.152344 18.847656 82.488281 17.207031 C 78.6875 16.273438 75.96875 13.558594 72.960938 10.554688 C 68.058594 5.664062 62.386719 0 50 0 Z M 25.007812 29.5 C 11.683594 29.5 3.351562 36.054688 0.0195312 49.167969 C 5.015625 42.609375 10.847656 40.152344 17.511719 41.792969 C 21.3125 42.726562 24.03125 45.441406 27.039062 48.441406 C 31.941406 53.335938 37.613281 59 50 59 C 63.328125 59 71.660156 52.445312 74.992188 39.332031 C 69.992188 45.886719 64.160156 48.347656 57.496094 46.707031 C 53.695312 45.773438 50.976562 43.058594 47.96875 40.054688 C 43.070312 35.164062 37.398438 29.5 25.007812 29.5 Z M 25.007812 29.5 "/>
</g>
</svg>
