<?xml version="1.0" encoding="UTF-8"?>
<svg xmlns="http://www.w3.org/2000/svg" xmlns:xlink="http://www.w3.org/1999/xlink" width="50px" height="50px" viewBox="0 0 50 29" version="1.1">
<g id="surface1">
<path style=" stroke:none;fill-rule:nonzero;fill:rgb(2.352941%,71.372549%,83.137255%);fill-opacity:1;" d="M 25 0 C 18.335938 0 14.171875 3.222656 12.503906 9.667969 C 15.003906 6.445312 17.917969 5.234375 21.25 6.042969 C 23.152344 6.5 24.511719 7.835938 26.015625 9.3125 C 28.464844 11.714844 31.300781 14.5 37.496094 14.5 C 44.160156 14.5 48.324219 11.277344 49.988281 4.832031 C 47.492188 8.054688 44.574219 9.261719 41.242188 8.457031 C 39.34375 8 37.984375 6.664062 36.480469 5.1875 C 34.03125 2.785156 31.195312 0 25 0 Z M 12.503906 14.5 C 5.839844 14.5 1.675781 17.722656 0.0117188 24.167969 C 2.507812 20.945312 5.425781 19.734375 8.757812 20.542969 C 10.65625 21 12.015625 22.335938 13.519531 23.8125 C 15.96875 26.214844 18.804688 29 25 29 C 31.664062 29 35.828125 25.777344 37.496094 19.332031 C 34.996094 22.554688 32.082031 23.765625 28.75 22.957031 C 26.847656 22.5 25.488281 21.164062 23.984375 19.6875 C 21.535156 17.285156 18.699219 14.5 12.503906 14.5 Z M 12.503906 14.5 "/>
</g>
</svg>
