<?xml version="1.0" encoding="UTF-8"?>
<svg xmlns="http://www.w3.org/2000/svg" xmlns:xlink="http://www.w3.org/1999/xlink" width="100px" height="100px" viewBox="0 0 100 100" version="1.1">
<g id="surface1">
<path style=" stroke:none;fill-rule:nonzero;fill:rgb(0%,47.843137%,80%);fill-opacity:1;" d="M 0 50 L 0 0 L 100 0 L 100 100 L 0 100 "/>
<path style=" stroke:none;fill-rule:nonzero;fill:rgb(100%,100%,100%);fill-opacity:1;" d="M 21.925781 50.175781 L 21.925781 54.25 L 34.925781 54.25 L 34.925781 91.25 L 44.148438 91.25 L 44.148438 54.25 L 57.148438 54.25 L 57.148438 50.25 C 57.148438 48 57.148438 46.175781 57.050781 46.125 C 57.050781 46.050781 49.125 46.023438 39.5 46.023438 L 22 46.101562 L 22 50.199219 Z M 80.351562 46 C 82.898438 46.601562 84.851562 47.75 86.601562 49.574219 C 87.523438 50.574219 88.898438 52.324219 89 52.773438 C 89 52.925781 84.675781 55.851562 82.050781 57.476562 C 81.949219 57.550781 81.550781 57.125 81.148438 56.476562 C 79.851562 54.625 78.523438 53.824219 76.449219 53.675781 C 73.449219 53.476562 71.449219 55.050781 71.449219 57.675781 C 71.449219 58.476562 71.601562 58.925781 71.898438 59.574219 C 72.574219 60.949219 73.824219 61.773438 77.699219 63.476562 C 84.851562 66.550781 87.949219 68.574219 89.824219 71.476562 C 91.949219 74.726562 92.425781 79.824219 91 83.648438 C 89.398438 87.824219 85.5 90.648438 79.925781 91.574219 C 78.175781 91.875 74.175781 91.824219 72.300781 91.5 C 68.300781 90.75 64.476562 88.75 62.125 86.175781 C 61.199219 85.175781 59.425781 82.5 59.523438 82.324219 L 60.476562 81.726562 L 64.226562 79.550781 L 67.050781 77.898438 L 67.699219 78.773438 C 68.523438 80.074219 70.375 81.824219 71.449219 82.425781 C 74.699219 84.101562 79.050781 83.875 81.199219 81.925781 C 82.125 81.074219 82.523438 80.175781 82.523438 78.925781 C 82.523438 77.773438 82.351562 77.25 81.773438 76.375 C 80.976562 75.273438 79.375 74.375 74.875 72.375 C 69.699219 70.175781 67.5 68.773438 65.449219 66.625 C 64.273438 65.324219 63.199219 63.300781 62.699219 61.625 C 62.324219 60.175781 62.199219 56.625 62.550781 55.199219 C 63.625 50.199219 67.398438 46.699219 72.800781 45.699219 C 74.550781 45.351562 78.675781 45.5 80.398438 45.949219 Z M 80.351562 46 "/>
</g>
</svg>
