<?xml version="1.0" encoding="UTF-8"?>
<svg xmlns="http://www.w3.org/2000/svg" xmlns:xlink="http://www.w3.org/1999/xlink" width="50px" height="50px" viewBox="0 0 50 50" version="1.1">
<g id="surface1">
<path style=" stroke:none;fill-rule:nonzero;fill:rgb(0%,47.843137%,80%);fill-opacity:1;" d="M 0 25 L 0 0 L 50 0 L 50 50 L 0 50 "/>
<path style=" stroke:none;fill-rule:nonzero;fill:rgb(100%,100%,100%);fill-opacity:1;" d="M 10.960938 25.085938 L 10.960938 27.125 L 17.460938 27.125 L 17.460938 45.625 L 22.074219 45.625 L 22.074219 27.125 L 28.574219 27.125 L 28.574219 25.125 C 28.574219 24 28.574219 23.085938 28.523438 23.0625 C 28.523438 23.023438 24.5625 23.011719 19.75 23.011719 L 11 23.050781 L 11 25.101562 Z M 40.175781 23 C 41.449219 23.300781 42.425781 23.875 43.300781 24.789062 C 43.761719 25.289062 44.449219 26.164062 44.5 26.386719 C 44.5 26.460938 42.335938 27.925781 41.023438 28.738281 C 40.976562 28.773438 40.773438 28.5625 40.574219 28.238281 C 39.925781 27.3125 39.261719 26.914062 38.226562 26.835938 C 36.726562 26.738281 35.726562 27.523438 35.726562 28.835938 C 35.726562 29.238281 35.800781 29.460938 35.949219 29.789062 C 36.289062 30.476562 36.914062 30.886719 38.851562 31.738281 C 42.425781 33.273438 43.976562 34.289062 44.914062 35.738281 C 45.976562 37.363281 46.210938 39.914062 45.5 41.824219 C 44.699219 43.914062 42.75 45.324219 39.960938 45.789062 C 39.085938 45.9375 37.085938 45.914062 36.148438 45.75 C 34.148438 45.375 32.238281 44.375 31.0625 43.085938 C 30.601562 42.585938 29.710938 41.25 29.761719 41.164062 L 30.238281 40.863281 L 32.113281 39.773438 L 33.523438 38.949219 L 33.851562 39.386719 C 34.261719 40.039062 35.1875 40.914062 35.726562 41.210938 C 37.351562 42.050781 39.523438 41.9375 40.601562 40.960938 C 41.0625 40.539062 41.261719 40.085938 41.261719 39.460938 C 41.261719 38.886719 41.175781 38.625 40.886719 38.1875 C 40.488281 37.636719 39.6875 37.1875 37.4375 36.1875 C 34.851562 35.085938 33.75 34.386719 32.726562 33.3125 C 32.136719 32.664062 31.601562 31.648438 31.351562 30.8125 C 31.164062 30.085938 31.101562 28.3125 31.273438 27.601562 C 31.8125 25.101562 33.699219 23.351562 36.398438 22.851562 C 37.273438 22.675781 39.335938 22.75 40.199219 22.976562 Z M 40.175781 23 "/>
</g>
</svg>
