<?xml version="1.0" encoding="UTF-8"?>
<svg xmlns="http://www.w3.org/2000/svg" xmlns:xlink="http://www.w3.org/1999/xlink" width="100px" height="100px" viewBox="0 0 100 100" version="1.1">
<g id="surface1">
<path style=" stroke:none;fill-rule:nonzero;fill:rgb(100%,100%,100%);fill-opacity:1;" d="M 50 0 L 94.191406 25 L 94.191406 75 L 50 100 L 5.808594 75 L 5.808594 25 Z M 50 0 "/>
<path style=" stroke:none;fill-rule:nonzero;fill:rgb(55.686275%,83.921569%,98.431373%);fill-opacity:1;" d="M 86.300781 73.273438 L 51.457031 92.984375 L 51.457031 77.632812 L 73.167969 65.691406 Z M 88.683594 71.117188 L 88.683594 29.898438 L 75.933594 37.257812 L 75.933594 63.75 Z M 13.558594 73.273438 L 48.398438 92.984375 L 48.398438 77.632812 L 26.691406 65.691406 Z M 11.175781 71.117188 L 11.175781 29.898438 L 23.925781 37.257812 L 23.925781 63.75 Z M 12.667969 27.234375 L 48.398438 7.015625 L 48.398438 21.859375 L 25.507812 34.449219 L 25.332031 34.550781 Z M 87.191406 27.234375 L 51.457031 7.015625 L 51.457031 21.859375 L 74.351562 34.449219 L 74.523438 34.550781 Z M 87.191406 27.234375 "/>
<path style=" stroke:none;fill-rule:nonzero;fill:rgb(10.980392%,47.058824%,75.294118%);fill-opacity:1;" d="M 48.398438 74.140625 L 26.984375 62.367188 L 26.984375 39.035156 L 48.398438 51.398438 L 48.398438 74.140625 M 51.457031 74.140625 L 72.875 62.367188 L 72.875 39.035156 L 51.457031 51.398438 L 51.457031 74.140625 M 28.433594 36.332031 L 49.933594 24.507812 L 71.433594 36.332031 L 49.933594 48.75 L 28.433594 36.332031 "/>
</g>
</svg>
