<?xml version="1.0" encoding="UTF-8"?>
<svg xmlns="http://www.w3.org/2000/svg" xmlns:xlink="http://www.w3.org/1999/xlink" width="50px" height="50px" viewBox="0 0 50 50" version="1.1">
<g id="surface1">
<path style=" stroke:none;fill-rule:nonzero;fill:rgb(100%,100%,100%);fill-opacity:1;" d="M 25 0 L 47.097656 12.5 L 47.097656 37.5 L 25 50 L 2.902344 37.5 L 2.902344 12.5 Z M 25 0 "/>
<path style=" stroke:none;fill-rule:nonzero;fill:rgb(55.686275%,83.921569%,98.431373%);fill-opacity:1;" d="M 43.148438 36.636719 L 25.730469 46.492188 L 25.730469 38.816406 L 36.582031 32.847656 Z M 44.339844 35.558594 L 44.339844 14.949219 L 37.964844 18.628906 L 37.964844 31.875 Z M 6.777344 36.636719 L 24.199219 46.492188 L 24.199219 38.816406 L 13.347656 32.847656 Z M 5.585938 35.558594 L 5.585938 14.949219 L 11.960938 18.628906 L 11.960938 31.875 Z M 6.332031 13.617188 L 24.199219 3.507812 L 24.199219 10.929688 L 12.753906 17.226562 L 12.667969 17.273438 Z M 43.597656 13.617188 L 25.730469 3.507812 L 25.730469 10.929688 L 37.175781 17.226562 L 37.261719 17.273438 Z M 43.597656 13.617188 "/>
<path style=" stroke:none;fill-rule:nonzero;fill:rgb(10.980392%,47.058824%,75.294118%);fill-opacity:1;" d="M 24.199219 37.070312 L 13.492188 31.183594 L 13.492188 19.515625 L 24.199219 25.699219 L 24.199219 37.070312 M 25.730469 37.070312 L 36.4375 31.183594 L 36.4375 19.515625 L 25.730469 25.699219 L 25.730469 37.070312 M 14.214844 18.167969 L 24.964844 12.253906 L 35.714844 18.167969 L 24.964844 24.375 L 14.214844 18.167969 "/>
</g>
</svg>
